STARTFONT 2.1
COMMENT
COMMENT Converted from OpenType font "CLEAR.ttf" by "otf2bdf 3.0".
COMMENT
FONT -FreeType-ClearviewHwy 3 B-Medium-R-Normal--39-350-80-80-P-170-ISO10646-1
SIZE 35 80 80
FONTBOUNDINGBOX 55 47 -8 -10
STARTPROPERTIES 19
FOUNDRY "FreeType"
FAMILY_NAME "ClearviewHwy 3 B"
WEIGHT_NAME "Medium"
SLANT "R"
SETWIDTH_NAME "Normal"
ADD_STYLE_NAME ""
PIXEL_SIZE 39
POINT_SIZE 350
RESOLUTION_X 80
RESOLUTION_Y 80
SPACING "P"
AVERAGE_WIDTH 170
CHARSET_REGISTRY "ISO10646"
CHARSET_ENCODING "1"
FONT_ASCENT 35
FONT_DESCENT 12
COPYRIGHT "Copyright (c) Terminal Design, Inc., 2002. All rights reserved."
_OTF_FONTFILE "CLEAR.ttf"
_OTF_PSNAME "ClearviewHwy-Three-B"
ENDPROPERTIES
CHARS 344
STARTCHAR 0020
ENCODING 32
SWIDTH 411 0
DWIDTH 16 0
BBX 0 0 0 0
BITMAP
ENDCHAR
STARTCHAR 0021
ENCODING 33
SWIDTH 360 0
DWIDTH 14 0
BBX 6 27 4 0
BITMAP
FC
FC
FC
FC
FC
FC
FC
FC
FC
FC
FC
FC
78
78
78
78
78
78
78
00
00
00
78
FC
FC
FC
78
ENDCHAR
STARTCHAR 0022
ENCODING 34
SWIDTH 514 0
DWIDTH 20 0
BBX 14 9 3 19
BITMAP
F87C
F87C
F87C
F87C
F878
7038
7038
7038
7038
ENDCHAR
STARTCHAR 0023
ENCODING 35
SWIDTH 694 0
DWIDTH 27 0
BBX 21 22 3 5
BITMAP
03C3C0
03C3C0
0383C0
0783C0
0783C0
7FFFF8
7FFFF8
7FFFF8
7FFFF8
070780
070780
0F0780
0F0700
FFFFF0
FFFFF0
FFFFF0
FFFFF0
0E0F00
0E0F00
1E0E00
1E1E00
1E1E00
ENDCHAR
STARTCHAR 0024
ENCODING 36
SWIDTH 540 0
DWIDTH 21 0
BBX 17 31 2 -2
BITMAP
01E000
01E000
01E000
07FC00
1FFF00
3FFF00
3FFF00
7C0E00
780200
780000
780000
7C0000
3F8000
3FE000
1FF800
07FC00
01FE00
007F00
001F80
000F80
000780
000780
200780
7C0F80
7FFF00
FFFF00
3FFE00
07F800
01E000
01E000
01E000
ENDCHAR
STARTCHAR 0025
ENCODING 37
SWIDTH 925 0
DWIDTH 36 0
BBX 30 27 3 0
BITMAP
1F800F00
3FC00E00
7FE01E00
79E01C00
F0F03C00
F0F03800
F0F07800
F0F0F000
F0F0F000
F0F1E000
F0F1C000
79E3C000
7FE383E0
3FC78FF0
1F871FF8
000F1E78
001E3C3C
001E3C3C
003C3C3C
00383C3C
00783C3C
00703C3C
00F03C3C
00E01E78
01E01FF8
03C00FF0
03C007E0
ENDCHAR
STARTCHAR 0026
ENCODING 38
SWIDTH 642 0
DWIDTH 25 0
BBX 21 27 3 0
BITMAP
07F000
1FF800
3FF800
3FF800
7C1000
780000
780000
7803C0
7803C0
7E03C0
3FFFF8
1FFFF8
3FFFF8
7FFFF8
7C03C0
F803C0
F003C0
F003C0
F003C0
F003C0
F003C0
F80780
7C0F80
7FFF80
3FFF00
1FFE00
07F800
ENDCHAR
STARTCHAR 0027
ENCODING 39
SWIDTH 282 0
DWIDTH 11 0
BBX 5 9 3 19
BITMAP
F8
F8
F8
F8
F8
70
70
70
70
ENDCHAR
STARTCHAR 0028
ENCODING 40
SWIDTH 360 0
DWIDTH 14 0
BBX 6 36 3 -5
BITMAP
18
1C
3C
3C
3C
78
78
78
78
78
F0
F0
F0
F0
F0
F0
F0
F0
F0
F0
F0
F0
F0
F0
F0
70
78
78
78
78
78
38
3C
3C
1C
18
ENDCHAR
STARTCHAR 0029
ENCODING 41
SWIDTH 360 0
DWIDTH 14 0
BBX 6 36 4 -5
BITMAP
60
E0
F0
F0
70
78
78
78
78
78
38
3C
3C
3C
3C
3C
3C
3C
3C
3C
3C
3C
3C
3C
3C
38
78
78
78
78
70
70
F0
F0
E0
60
ENDCHAR
STARTCHAR 002A
ENCODING 42
SWIDTH 437 0
DWIDTH 17 0
BBX 13 11 2 17
BITMAP
0F80
0700
4710
7770
7FF8
FFF8
0F80
1DC0
3DE0
78F0
0880
ENDCHAR
STARTCHAR 002B
ENCODING 43
SWIDTH 591 0
DWIDTH 23 0
BBX 16 18 3 2
BITMAP
03C0
03C0
03C0
03C0
03C0
03C0
03C0
FFFF
FFFF
FFFF
FFFF
03C0
03C0
03C0
03C0
03C0
03C0
03C0
ENDCHAR
STARTCHAR 002C
ENCODING 44
SWIDTH 282 0
DWIDTH 11 0
BBX 7 10 2 -5
BITMAP
3E
3E
7C
7C
7C
78
78
78
70
F0
ENDCHAR
STARTCHAR 002D
ENCODING 45
SWIDTH 437 0
DWIDTH 17 0
BBX 9 4 4 10
BITMAP
FF80
FF80
FF80
FF80
ENDCHAR
STARTCHAR 002E
ENCODING 46
SWIDTH 282 0
DWIDTH 11 0
BBX 6 5 3 0
BITMAP
78
FC
FC
FC
78
ENDCHAR
STARTCHAR 002F
ENCODING 47
SWIDTH 514 0
DWIDTH 20 0
BBX 17 33 2 -5
BITMAP
000F80
000F00
000F00
001E00
001E00
003E00
003C00
003C00
007C00
007800
00F800
00F000
00F000
01F000
01E000
01E000
03C000
03C000
07C000
078000
078000
0F0000
0F0000
1F0000
1E0000
1E0000
3C0000
3C0000
7C0000
780000
780000
F00000
F00000
ENDCHAR
STARTCHAR 0030
ENCODING 48
SWIDTH 668 0
DWIDTH 26 0
BBX 20 27 3 0
BITMAP
01F800
07FE00
1FFF80
1FFF80
3E07C0
7C03E0
7801E0
7801E0
F001F0
F000F0
F000F0
F000F0
F000F0
F000F0
F000F0
F000F0
F000F0
F000F0
7001F0
7801E0
7801E0
7C03E0
3E07C0
1FFF80
1FFF80
07FE00
01F800
ENDCHAR
STARTCHAR 0031
ENCODING 49
SWIDTH 411 0
DWIDTH 16 0
BBX 10 27 2 0
BITMAP
03C0
07C0
0FC0
1FC0
3FC0
7FC0
FFC0
FBC0
73C0
43C0
03C0
03C0
03C0
03C0
03C0
03C0
03C0
03C0
03C0
03C0
03C0
03C0
03C0
03C0
03C0
03C0
03C0
ENDCHAR
STARTCHAR 0032
ENCODING 50
SWIDTH 565 0
DWIDTH 22 0
BBX 17 27 2 0
BITMAP
07F000
1FFC00
7FFE00
FFFF00
7C1F80
780780
200780
000780
000780
000780
000F00
001F00
001F00
003E00
007C00
00F800
01F000
03E000
07C000
0F8000
3F0000
7E0000
FC0000
FFFF80
FFFF80
FFFF80
7FFF80
ENDCHAR
STARTCHAR 0033
ENCODING 51
SWIDTH 565 0
DWIDTH 22 0
BBX 17 27 2 0
BITMAP
07F000
3FFC00
FFFE00
7FFF00
3C1F00
200F00
000F00
000F00
000F00
000F00
003F00
07FE00
07FC00
07FE00
07FF00
001F00
000F80
000780
000780
000780
000780
200F80
781F00
7FFF00
FFFE00
7FFC00
0FF000
ENDCHAR
STARTCHAR 0034
ENCODING 52
SWIDTH 591 0
DWIDTH 23 0
BBX 18 27 2 0
BITMAP
003E00
003E00
007E00
00FE00
00FE00
01FE00
01DE00
03DE00
079E00
079E00
0F1E00
0F1E00
1E1E00
3C1E00
3C1E00
781E00
F81E00
FFFFC0
FFFFC0
7FFFC0
7FFFC0
001E00
001E00
001E00
001E00
001E00
001E00
ENDCHAR
STARTCHAR 0035
ENCODING 53
SWIDTH 565 0
DWIDTH 22 0
BBX 17 27 2 0
BITMAP
3FFF00
3FFF00
3FFF00
3FFF00
3C0000
7C0000
7C0000
7C0000
780000
79F000
7FFC00
7FFE00
FFFF00
7C1F00
300F80
000780
000780
000780
000780
000780
000F80
200F00
781F00
7FFE00
FFFE00
7FF800
0FE000
ENDCHAR
STARTCHAR 0036
ENCODING 54
SWIDTH 617 0
DWIDTH 24 0
BBX 18 27 3 0
BITMAP
01FC00
07FF80
0FFF00
1FFF00
3F0600
3E0000
7C0000
780000
780000
F9F800
FBFE00
FFFF00
FFFF80
FE0F80
FC07C0
F803C0
F803C0
F803C0
F803C0
F803C0
7807C0
7C0780
7E0F80
3FFF00
1FFF00
0FFC00
03F000
ENDCHAR
STARTCHAR 0037
ENCODING 55
SWIDTH 540 0
DWIDTH 21 0
BBX 17 27 2 0
BITMAP
FFFF00
FFFF80
FFFF80
FFFF80
001F80
003F00
003C00
007C00
00F800
00F000
01E000
01E000
03C000
03C000
03C000
038000
078000
078000
078000
078000
078000
078000
078000
078000
078000
078000
078000
ENDCHAR
STARTCHAR 0038
ENCODING 56
SWIDTH 591 0
DWIDTH 23 0
BBX 17 27 3 0
BITMAP
07F800
1FFE00
3FFF00
3FFF00
7E1F80
780780
780780
780780
780780
780F80
3E1F00
3FFF00
1FFC00
3FFE00
7FFF00
7C1F00
F80F80
F00780
F00780
F00780
F00780
F80F80
7C1F00
7FFF00
3FFE00
1FFC00
07F000
ENDCHAR
STARTCHAR 0039
ENCODING 57
SWIDTH 642 0
DWIDTH 25 0
BBX 18 27 3 0
BITMAP
03F000
0FFC00
1FFE00
3FFF00
7C1F00
780F80
F00780
F00780
F007C0
F007C0
F007C0
F007C0
F80FC0
7C1FC0
7FFFC0
3FFFC0
1FF7C0
07E7C0
0007C0
000780
000F80
000F80
383F00
3FFE00
7FFE00
3FF800
0FE000
ENDCHAR
STARTCHAR 003A
ENCODING 58
SWIDTH 282 0
DWIDTH 11 0
BBX 6 19 3 0
BITMAP
78
FC
FC
FC
78
00
00
00
00
00
00
00
00
00
78
FC
FC
FC
78
ENDCHAR
STARTCHAR 003B
ENCODING 59
SWIDTH 282 0
DWIDTH 11 0
BBX 6 25 3 -5
BITMAP
38
7C
7C
7C
7C
38
00
00
00
00
00
00
00
00
00
7C
7C
78
78
F8
F0
F0
F0
E0
E0
ENDCHAR
STARTCHAR 003C
ENCODING 60
SWIDTH 668 0
DWIDTH 26 0
BBX 20 22 3 0
BITMAP
000010
000070
0003F0
000FF0
003FE0
00FF80
07FC00
1FF000
7FC000
FF0000
F80000
F80000
FE0000
7FC000
1FF000
07FC00
00FF80
003FE0
000FF0
0003F0
000070
000010
ENDCHAR
STARTCHAR 003D
ENCODING 61
SWIDTH 591 0
DWIDTH 23 0
BBX 15 12 4 5
BITMAP
FFFE
FFFE
FFFE
FFFE
0000
0000
0000
0000
FFFE
FFFE
FFFE
FFFE
ENDCHAR
STARTCHAR 003E
ENCODING 62
SWIDTH 668 0
DWIDTH 26 0
BBX 20 22 3 0
BITMAP
800000
E00000
FC0000
FF0000
7FC000
1FF000
03FE00
00FF80
003FE0
0007F0
0001F0
0001F0
0007F0
003FE0
00FF80
03FE00
1FF800
7FC000
FF0000
FC0000
E00000
800000
ENDCHAR
STARTCHAR 003F
ENCODING 63
SWIDTH 514 0
DWIDTH 20 0
BBX 15 27 2 0
BITMAP
0FE0
3FF8
FFFC
7FFE
783E
201E
001E
001E
001E
001E
003E
00FC
03F8
07F0
0FC0
0F80
0F00
0F00
0F00
0000
0000
0000
0F00
1F80
1F80
1F80
0F00
ENDCHAR
STARTCHAR 0040
ENCODING 64
SWIDTH 848 0
DWIDTH 33 0
BBX 25 27 4 0
BITMAP
003F8000
01FFF000
07FFF800
0FC03C00
1F000E00
3E000700
3C080300
787FF300
70FFE180
70FBE180
E1E0E180
E1C0E180
E1C0E180
E381E180
E381E180
E381E380
E381C300
E1C3C700
71FFFE00
71FFFE00
78FCF800
3C000000
1E000000
0F803800
07FFF800
03FFF000
007F8000
ENDCHAR
STARTCHAR 0041
ENCODING 65
SWIDTH 668 0
DWIDTH 26 0
BBX 22 27 2 0
BITMAP
00FC00
00FC00
01FE00
01FE00
01FE00
03FE00
03DF00
03CF00
03CF00
07CF80
078F80
078780
0F87C0
0F87C0
0F03C0
1F03C0
1F03E0
1FFFE0
1FFFE0
3FFFF0
3FFFF0
3E01F0
7C00F8
7C00F8
7C00F8
F8007C
F8007C
ENDCHAR
STARTCHAR 0042
ENCODING 66
SWIDTH 668 0
DWIDTH 26 0
BBX 19 27 4 0
BITMAP
FFF800
FFFE00
FFFF00
FFFF80
F00FC0
F007C0
F003C0
F003C0
F003C0
F003C0
F00F80
FFFF00
FFFE00
FFFF00
FFFF80
F00FC0
F007E0
F003E0
F003E0
F003E0
F003E0
F007E0
F00FE0
FFFFC0
FFFF80
FFFF00
FFFC00
ENDCHAR
STARTCHAR 0043
ENCODING 67
SWIDTH 642 0
DWIDTH 25 0
BBX 20 27 3 0
BITMAP
00FE00
03FF80
0FFFC0
1FFFF0
3F83E0
3E01C0
7E00C0
7C0000
7C0000
F80000
F80000
F80000
F80000
F80000
F80000
F80000
F80000
F80000
7C0000
7C0000
7E0040
3E01E0
3F83E0
1FFFF0
0FFFE0
07FF80
00FE00
ENDCHAR
STARTCHAR 0044
ENCODING 68
SWIDTH 694 0
DWIDTH 27 0
BBX 20 27 4 0
BITMAP
FFF000
FFFC00
FFFF00
FFFF80
F01FC0
F00FC0
F007E0
F003E0
F003E0
F001F0
F001F0
F001F0
F001F0
F001F0
F001F0
F001F0
F001F0
F001F0
F003E0
F003E0
F007E0
F00FC0
F01FC0
FFFF80
FFFF00
FFFC00
FFF000
ENDCHAR
STARTCHAR 0045
ENCODING 69
SWIDTH 565 0
DWIDTH 22 0
BBX 15 27 4 0
BITMAP
FFFE
FFFE
FFFE
FFFE
F000
F000
F000
F000
F000
F000
F000
FFFC
FFFC
FFFC
FFFC
F000
F000
F000
F000
F000
F000
F000
F000
FFFE
FFFE
FFFE
FFFE
ENDCHAR
STARTCHAR 0046
ENCODING 70
SWIDTH 540 0
DWIDTH 21 0
BBX 15 27 4 0
BITMAP
FFFE
FFFE
FFFE
FFFE
F000
F000
F000
F000
F000
F000
F000
FFFC
FFFC
FFFC
FFFC
F000
F000
F000
F000
F000
F000
F000
F000
F000
F000
F000
F000
ENDCHAR
STARTCHAR 0047
ENCODING 71
SWIDTH 694 0
DWIDTH 27 0
BBX 21 27 3 0
BITMAP
00FE00
03FFC0
0FFFE0
1FFFF0
1F83E0
3F00E0
7E0040
7C0000
7C0000
F80000
F80000
F80000
F81FF8
F81FF8
F81FF8
F81FF8
F80078
F80078
7C0078
7C0078
7E00F0
3E00F0
3F83E0
1FFFE0
0FFFC0
07FF80
00FE00
ENDCHAR
STARTCHAR 0048
ENCODING 72
SWIDTH 694 0
DWIDTH 27 0
BBX 19 27 4 0
BITMAP
F001E0
F001E0
F001E0
F001E0
F001E0
F001E0
F001E0
F001E0
F001E0
F001E0
F001E0
FFFFE0
FFFFE0
FFFFE0
FFFFE0
F001E0
F001E0
F001E0
F001E0
F001E0
F001E0
F001E0
F001E0
F001E0
F001E0
F001E0
F001E0
ENDCHAR
STARTCHAR 0049
ENCODING 73
SWIDTH 334 0
DWIDTH 13 0
BBX 4 27 5 0
BITMAP
F0
F0
F0
F0
F0
F0
F0
F0
F0
F0
F0
F0
F0
F0
F0
F0
F0
F0
F0
F0
F0
F0
F0
F0
F0
F0
F0
ENDCHAR
STARTCHAR 004A
ENCODING 74
SWIDTH 488 0
DWIDTH 19 0
BBX 13 27 2 0
BITMAP
0078
0078
0078
0078
0078
0078
0078
0078
0078
0078
0078
0078
0078
0078
0078
0078
0078
0078
0078
0078
0078
0078
30F8
7FF0
FFF0
FFE0
1F80
ENDCHAR
STARTCHAR 004B
ENCODING 75
SWIDTH 617 0
DWIDTH 24 0
BBX 19 27 4 0
BITMAP
F00FC0
F01F80
F03F80
F03F00
F07E00
F0FC00
F0FC00
F1F800
F3F000
F3F000
F7E000
FFC000
FFC000
FFE000
FFF000
FFF000
FDF800
F8F800
F0FC00
F07E00
F07E00
F03F00
F01F00
F01F80
F00FC0
F00FC0
F007E0
ENDCHAR
STARTCHAR 004C
ENCODING 76
SWIDTH 514 0
DWIDTH 20 0
BBX 14 27 4 0
BITMAP
F000
F000
F000
F000
F000
F000
F000
F000
F000
F000
F000
F000
F000
F000
F000
F000
F000
F000
F000
F000
F000
F000
F000
FFFC
FFFC
FFFC
FFFC
ENDCHAR
STARTCHAR 004D
ENCODING 77
SWIDTH 797 0
DWIDTH 31 0
BBX 23 27 4 0
BITMAP
F0001E
F8003E
FC007E
FC007E
FE00FE
FF01FE
FF01FE
FF83FE
FFC7FE
FFC7FE
F7EFDE
F3FF9E
F3FF1E
F1FF1E
F0FE1E
F07C1E
F07C1E
F0381E
F0101E
F0101E
F0001E
F0001E
F0001E
F0001E
F0001E
F0001E
F0001E
ENDCHAR
STARTCHAR 004E
ENCODING 78
SWIDTH 720 0
DWIDTH 28 0
BBX 20 27 4 0
BITMAP
F000F0
F800F0
FC00F0
FC00F0
FE00F0
FF00F0
FF00F0
FF80F0
FFC0F0
FFE0F0
F7E0F0
F7F0F0
F3F8F0
F1F8F0
F1FCF0
F0FEF0
F07EF0
F07FF0
F03FF0
F01FF0
F01FF0
F00FF0
F00FF0
F007F0
F003F0
F003F0
F001F0
ENDCHAR
STARTCHAR 004F
ENCODING 79
SWIDTH 745 0
DWIDTH 29 0
BBX 23 27 3 0
BITMAP
00FE00
07FFC0
0FFFE0
1FFFF0
3F83F8
3E00F8
7C007C
7C007C
7C007C
F8003E
F8003E
F8003E
F8003E
F8003E
F8003E
F8003E
F8003E
F8003E
7C007C
7C007C
7C007C
3E00F8
3F83F8
1FFFF0
0FFFE0
07FFC0
00FE00
ENDCHAR
STARTCHAR 0050
ENCODING 80
SWIDTH 617 0
DWIDTH 24 0
BBX 18 27 4 0
BITMAP
FFF000
FFFE00
FFFF00
FFFF80
F01F80
F00FC0
F007C0
F007C0
F007C0
F007C0
F007C0
F00FC0
F01F80
FFFF80
FFFF00
FFFE00
FFF800
F00000
F00000
F00000
F00000
F00000
F00000
F00000
F00000
F00000
F00000
ENDCHAR
STARTCHAR 0051
ENCODING 81
SWIDTH 745 0
DWIDTH 29 0
BBX 23 31 3 -4
BITMAP
00FE00
07FFC0
0FFFE0
1FFFF0
3F83F8
3E00F8
7C007C
7C007C
7C007C
F8003E
F8003E
F8003E
F8003E
F8003E
F8003E
F8003E
F8003E
F8003E
7C007C
7C007C
7C007C
3E00F8
3F83F8
1FFFF0
0FFFE0
07FFF0
00FFF8
0001FE
0000FC
00007C
000018
ENDCHAR
STARTCHAR 0052
ENCODING 82
SWIDTH 642 0
DWIDTH 25 0
BBX 18 27 4 0
BITMAP
FFF000
FFFE00
FFFF00
FFFF80
F01F80
F00FC0
F007C0
F007C0
F007C0
F007C0
F00FC0
F01F80
FFFF80
FFFF00
FFFC00
FFFC00
F03E00
F03E00
F03F00
F01F00
F01F00
F01F80
F00F80
F00F80
F007C0
F007C0
F007C0
ENDCHAR
STARTCHAR 0053
ENCODING 83
SWIDTH 591 0
DWIDTH 23 0
BBX 18 27 2 0
BITMAP
03FC00
0FFF00
1FFF80
3FFF80
7E0780
780100
780000
780000
7C0000
7E0000
3F8000
3FF000
1FFC00
07FF00
01FF80
003F80
000FC0
0007C0
0003C0
0003C0
4003C0
3007C0
7C0F80
7FFF80
FFFF00
3FFE00
07F800
ENDCHAR
STARTCHAR 0054
ENCODING 84
SWIDTH 540 0
DWIDTH 21 0
BBX 16 27 2 0
BITMAP
FFFF
FFFF
FFFF
FFFF
03C0
03C0
03C0
03C0
03C0
03C0
03C0
03C0
03C0
03C0
03C0
03C0
03C0
03C0
03C0
03C0
03C0
03C0
03C0
03C0
03C0
03C0
03C0
ENDCHAR
STARTCHAR 0055
ENCODING 85
SWIDTH 694 0
DWIDTH 27 0
BBX 19 27 4 0
BITMAP
F001E0
F001E0
F001E0
F001E0
F001E0
F001E0
F001E0
F001E0
F001E0
F001E0
F001E0
F001E0
F001E0
F001E0
F001E0
F001E0
F001E0
F001E0
F001E0
F001E0
F803E0
7803C0
7E0FC0
3FFF80
3FFF80
1FFE00
03F800
ENDCHAR
STARTCHAR 0056
ENCODING 86
SWIDTH 617 0
DWIDTH 24 0
BBX 20 27 2 0
BITMAP
F801F0
F801F0
7C03E0
7C03E0
7C03E0
7C03E0
3C03C0
3E07C0
3E07C0
1E0780
1E0780
1F0F80
1F0F80
0F0F00
0F0F00
0F8F00
0F9F00
079E00
079E00
079E00
07FE00
03FC00
03FC00
03FC00
03F800
01F800
01F800
ENDCHAR
STARTCHAR 0057
ENCODING 87
SWIDTH 951 0
DWIDTH 37 0
BBX 34 27 1 0
BITMAP
F801E007C0
F803E007C0
7803E00780
7C03F00F80
7C07F00F80
7C07F00F80
7C07F80F80
3E07F80F00
3E0FF81F00
3E0FFC1F00
3E0F7C1F00
1E0F3C1E00
1F1F3C1E00
1F1F3E3E00
1F1E1E3E00
1F1E1E3E00
0F3E1F3C00
0FBE1F3C00
0FBC0F7C00
0FBC0FFC00
07FC0FF800
07F80FF800
07F807F800
07F807F800
07F807F800
03F003F000
03F003F000
ENDCHAR
STARTCHAR 0058
ENCODING 88
SWIDTH 617 0
DWIDTH 24 0
BBX 22 27 1 0
BITMAP
7E00FC
3F01F8
3F01F0
1F03F0
1F83E0
0F87E0
0FC7C0
07CFC0
07EF80
03FF80
03FF00
01FF00
01FE00
01FE00
01FE00
03FF00
03FF00
07FF80
07CF80
0FCFC0
0F87C0
1F87E0
3F03F0
3F03F0
7E01F8
7E01F8
FC00FC
ENDCHAR
STARTCHAR 0059
ENCODING 89
SWIDTH 591 0
DWIDTH 23 0
BBX 20 27 2 0
BITMAP
F801F0
7C03E0
7C03E0
7E07C0
3E07C0
3E0780
1F0F80
1F0F00
0F9F00
0F9E00
079E00
07FC00
03FC00
03F800
01F800
01F800
00F000
00F000
00F000
00F000
00F000
00F000
00F000
00F000
00F000
00F000
00F000
ENDCHAR
STARTCHAR 005A
ENCODING 90
SWIDTH 540 0
DWIDTH 21 0
BBX 17 27 2 0
BITMAP
7FFF80
7FFF80
7FFF80
7FFF80
001F00
003F00
003E00
007E00
00FC00
00F800
01F800
01F000
03F000
07E000
07E000
0FC000
0F8000
1F8000
1F0000
3F0000
7E0000
7C0000
FC0000
FFFF80
FFFF80
FFFF80
FFFF80
ENDCHAR
STARTCHAR 005B
ENCODING 91
SWIDTH 385 0
DWIDTH 15 0
BBX 8 36 4 -5
BITMAP
FF
FF
FF
F0
F0
F0
F0
F0
F0
F0
F0
F0
F0
F0
F0
F0
F0
F0
F0
F0
F0
F0
F0
F0
F0
F0
F0
F0
F0
F0
F0
F0
F0
FF
FF
FF
ENDCHAR
STARTCHAR 005C
ENCODING 92
SWIDTH 514 0
DWIDTH 20 0
BBX 17 33 2 -5
BITMAP
F00000
F00000
780000
780000
7C0000
3C0000
3C0000
1E0000
1E0000
1F0000
0F0000
0F0000
078000
078000
07C000
03C000
03C000
01E000
01E000
01E000
00F000
00F000
007800
007800
007800
003C00
003C00
001E00
001E00
001E00
000F00
000F00
000780
ENDCHAR
STARTCHAR 005D
ENCODING 93
SWIDTH 385 0
DWIDTH 15 0
BBX 8 36 3 -5
BITMAP
FF
FF
FF
0F
0F
0F
0F
0F
0F
0F
0F
0F
0F
0F
0F
0F
0F
0F
0F
0F
0F
0F
0F
0F
0F
0F
0F
0F
0F
0F
0F
0F
0F
FF
FF
FF
ENDCHAR
STARTCHAR 005E
ENCODING 94
SWIDTH 514 0
DWIDTH 20 0
BBX 16 7 2 21
BITMAP
0180
07E0
1FF8
7FFE
FE7F
781E
2004
ENDCHAR
STARTCHAR 005F
ENCODING 95
SWIDTH 514 0
DWIDTH 20 0
BBX 16 3 2 -6
BITMAP
FFFF
FFFF
FFFF
ENDCHAR
STARTCHAR 0060
ENCODING 96
SWIDTH 308 0
DWIDTH 12 0
BBX 9 6 1 25
BITMAP
1800
7C00
FE00
3F00
0F80
0200
ENDCHAR
STARTCHAR 0061
ENCODING 97
SWIDTH 591 0
DWIDTH 23 0
BBX 18 22 3 0
BITMAP
07F800
3FFE00
7FFF00
7FFF00
7C0F80
200780
000780
000780
00FF80
0FFF80
1FFF80
7FFF80
7F0780
F80780
F00780
F00780
F00780
F81F80
FFFF80
7FF7C0
3FE780
1F8300
ENDCHAR
STARTCHAR 0062
ENCODING 98
SWIDTH 642 0
DWIDTH 25 0
BBX 18 29 4 0
BITMAP
F00000
F00000
F00000
F00000
F00000
F00000
F00000
F1F000
F7FC00
FFFE00
FFFF00
FC1F80
F80780
F00780
F003C0
F003C0
F003C0
F003C0
F003C0
F003C0
F003C0
F003C0
F00780
F80780
FC1F80
FFFF00
F7FE00
E7FC00
E1F800
ENDCHAR
STARTCHAR 0063
ENCODING 99
SWIDTH 565 0
DWIDTH 22 0
BBX 17 22 3 0
BITMAP
01F800
0FFF00
1FFF80
3FFF00
3E0700
7C0200
780000
F80000
F00000
F00000
F00000
F00000
F00000
F00000
F80000
780000
7C0200
7E0700
3FFF00
1FFF80
0FFF00
03F800
ENDCHAR
STARTCHAR 0064
ENCODING 100
SWIDTH 642 0
DWIDTH 25 0
BBX 18 29 3 0
BITMAP
0003C0
0003C0
0003C0
0003C0
0003C0
0003C0
0003C0
07E3C0
0FFBC0
1FFFC0
3FFFC0
7E0FC0
7807C0
7803C0
F003C0
F003C0
F003C0
F003C0
F003C0
F003C0
F003C0
F003C0
7803C0
7807C0
7E0FC0
3FFFC0
1FFBC0
0FFBC0
07E3C0
ENDCHAR
STARTCHAR 0065
ENCODING 101
SWIDTH 617 0
DWIDTH 24 0
BBX 18 22 3 0
BITMAP
03F800
0FFC00
1FFE00
3FFF00
7E0F80
780780
780380
F003C0
F003C0
FFFFC0
FFFFC0
FFFFC0
FFFFC0
F00000
F00000
700000
780100
7E0700
3FFF80
1FFF80
0FFF00
03F800
ENDCHAR
STARTCHAR 0066
ENCODING 102
SWIDTH 385 0
DWIDTH 15 0
BBX 12 29 2 0
BITMAP
03F0
0FF0
1FF0
1FF0
1E00
1E00
1E00
FFE0
FFE0
FFE0
FFE0
1E00
1E00
1E00
1E00
1E00
1E00
1E00
1E00
1E00
1E00
1E00
1E00
1E00
1E00
1E00
1E00
1E00
1E00
ENDCHAR
STARTCHAR 0067
ENCODING 103
SWIDTH 642 0
DWIDTH 25 0
BBX 18 31 3 -9
BITMAP
07E3C0
0FFBC0
3FFFC0
3FFFC0
7E0FC0
7807C0
7803C0
F003C0
F003C0
F003C0
F003C0
F003C0
F003C0
F003C0
F003C0
F807C0
7C07C0
7E0FC0
3FFFC0
3FFFC0
0FFBC0
07E3C0
0003C0
0003C0
0003C0
1003C0
1E07C0
1FFF80
3FFF80
1FFF00
03FC00
ENDCHAR
STARTCHAR 0068
ENCODING 104
SWIDTH 642 0
DWIDTH 25 0
BBX 17 29 4 0
BITMAP
F00000
F00000
F00000
F00000
F00000
F00000
F00000
F1F800
F7FE00
FFFF00
FFFF00
FC1F00
F80F80
F00780
F00780
F00780
F00780
F00780
F00780
F00780
F00780
F00780
F00780
F00780
F00780
F00780
F00780
F00780
F00780
ENDCHAR
STARTCHAR 0069
ENCODING 105
SWIDTH 308 0
DWIDTH 12 0
BBX 6 30 3 0
BITMAP
78
FC
FC
FC
78
00
00
00
78
78
78
78
78
78
78
78
78
78
78
78
78
78
78
78
78
78
78
78
78
78
ENDCHAR
STARTCHAR 006A
ENCODING 106
SWIDTH 308 0
DWIDTH 12 0
BBX 11 38 -2 -8
BITMAP
03C0
07E0
07E0
07E0
03C0
0000
0000
0000
03C0
03C0
03C0
03C0
03C0
03C0
03C0
03C0
03C0
03C0
03C0
03C0
03C0
03C0
03C0
03C0
03C0
03C0
03C0
03C0
03C0
03C0
03C0
03C0
03C0
07C0
FF80
FF80
FF00
FC00
ENDCHAR
STARTCHAR 006B
ENCODING 107
SWIDTH 565 0
DWIDTH 22 0
BBX 17 29 4 0
BITMAP
F00000
F00000
F00000
F00000
F00000
F00000
F00000
F03F80
F03F00
F07E00
F0FC00
F0FC00
F1F800
F3F000
F3F000
F7E000
FFC000
FFE000
FFE000
FFF000
F9F800
F9F800
F0FC00
F0FC00
F07E00
F07E00
F03F00
F03F00
F01F80
ENDCHAR
STARTCHAR 006C
ENCODING 108
SWIDTH 360 0
DWIDTH 14 0
BBX 8 29 4 0
BITMAP
F0
F0
F0
F0
F0
F0
F0
F0
F0
F0
F0
F0
F0
F0
F0
F0
F0
F0
F0
F0
F0
F0
F0
F0
F0
FF
FF
7F
3F
ENDCHAR
STARTCHAR 006D
ENCODING 109
SWIDTH 874 0
DWIDTH 34 0
BBX 26 22 4 0
BITMAP
F3F07C00
F7F9FF00
FFFFFF80
FFFFFF80
FC3F87C0
F81F07C0
F01E03C0
F01E03C0
F01E03C0
F01E03C0
F01E03C0
F01E03C0
F01E03C0
F01E03C0
F01E03C0
F01E03C0
F01E03C0
F01E03C0
F01E03C0
F01E03C0
F01E03C0
F01E03C0
ENDCHAR
STARTCHAR 006E
ENCODING 110
SWIDTH 642 0
DWIDTH 25 0
BBX 17 22 4 0
BITMAP
F1F800
F7FE00
FFFF00
FFFF00
FC1F00
F80F80
F00780
F00780
F00780
F00780
F00780
F00780
F00780
F00780
F00780
F00780
F00780
F00780
F00780
F00780
F00780
F00780
ENDCHAR
STARTCHAR 006F
ENCODING 111
SWIDTH 642 0
DWIDTH 25 0
BBX 19 22 3 0
BITMAP
03F800
0FFE00
1FFF00
3FFF80
7E0FC0
7807C0
7803C0
F001E0
F001E0
F001E0
F001E0
F001E0
F001E0
F001E0
F001E0
7803C0
7803C0
7E0FC0
3FFF80
1FFF00
0FFE00
03F800
ENDCHAR
STARTCHAR 0070
ENCODING 112
SWIDTH 642 0
DWIDTH 25 0
BBX 18 30 4 -8
BITMAP
F1F800
F7FC00
FFFE00
FFFF00
FC1F80
F80780
F00780
F003C0
F003C0
F003C0
F003C0
F003C0
F003C0
F003C0
F003C0
F00780
F80F80
FC1F80
FFFF00
FFFE00
F7FC00
F1F000
F00000
F00000
F00000
F00000
F00000
F00000
F00000
F00000
ENDCHAR
STARTCHAR 0071
ENCODING 113
SWIDTH 642 0
DWIDTH 25 0
BBX 20 31 3 -9
BITMAP
07E3C0
0FFBC0
1FFFC0
3FFFC0
7E0FC0
7807C0
7803C0
F003C0
F003C0
F003C0
F003C0
F003C0
F003C0
F003C0
F003C0
7803C0
7807C0
7E0FC0
3FFFC0
1FFFC0
0FFBC0
07E3C0
0003C0
0003C0
0003C0
0003C0
0003C0
0003F0
0003E0
0001C0
0000C0
ENDCHAR
STARTCHAR 0072
ENCODING 114
SWIDTH 437 0
DWIDTH 17 0
BBX 11 22 4 0
BITMAP
F1E0
F7E0
FFE0
FFE0
FC00
F800
F000
F000
F000
F000
F000
F000
F000
F000
F000
F000
F000
F000
F000
F000
F000
F000
ENDCHAR
STARTCHAR 0073
ENCODING 115
SWIDTH 514 0
DWIDTH 20 0
BBX 16 22 2 0
BITMAP
07F8
1FFE
3FFE
7FFE
780C
7800
7800
7C00
7F00
7FE0
3FF8
0FFC
03FE
007E
001E
000F
401F
781E
FFFE
FFFC
7FF8
0FE0
ENDCHAR
STARTCHAR 0074
ENCODING 116
SWIDTH 411 0
DWIDTH 16 0
BBX 11 28 2 0
BITMAP
1E00
1E00
1E00
1E00
1E00
1E00
FFE0
FFE0
FFE0
FFE0
1E00
1E00
1E00
1E00
1E00
1E00
1E00
1E00
1E00
1E00
1E00
1E00
1E00
1E00
1FE0
1FE0
0FE0
07E0
ENDCHAR
STARTCHAR 0075
ENCODING 117
SWIDTH 642 0
DWIDTH 25 0
BBX 17 22 4 0
BITMAP
F00780
F00780
F00780
F00780
F00780
F00780
F00780
F00780
F00780
F00780
F00780
F00780
F00780
F00780
F00780
F00780
F80F80
FC1F80
7FFF80
7FFF80
3FF780
0FC780
ENDCHAR
STARTCHAR 0076
ENCODING 118
SWIDTH 565 0
DWIDTH 22 0
BBX 18 22 2 0
BITMAP
F803C0
F803C0
7C0780
7C0780
7C0780
3C0780
3C0F00
3E0F00
3E0F00
1E1E00
1E1E00
1F1E00
0F1E00
0F3C00
0F3C00
0F3C00
07B800
07F800
07F800
07F800
03F000
03F000
ENDCHAR
STARTCHAR 0077
ENCODING 119
SWIDTH 874 0
DWIDTH 34 0
BBX 30 22 2 0
BITMAP
F00F807C
F00F8078
F00F8078
F01FC078
781FC0F0
781FC0F0
781FC0F0
783DE0F0
7C3DE1F0
3C3DE1E0
3C3DF1E0
3C78F1E0
3E78F3E0
1E78F3C0
1E78FBC0
1EF07BC0
1FF07BC0
1FF07FC0
0FE03F80
0FE03F80
0FE03F80
0FE03F80
ENDCHAR
STARTCHAR 0078
ENCODING 120
SWIDTH 540 0
DWIDTH 21 0
BBX 19 22 1 0
BITMAP
7C03C0
7C03C0
3E0780
1F0F00
1F0F00
0F9E00
0F9E00
07FC00
07FC00
03F800
01F800
03F800
07FC00
07FC00
0FBE00
0F1E00
1F1F00
1E0F00
3E0F80
7C07C0
7C07C0
F803E0
ENDCHAR
STARTCHAR 0079
ENCODING 121
SWIDTH 591 0
DWIDTH 23 0
BBX 19 31 2 -9
BITMAP
F803E0
F803E0
7C07C0
7C07C0
7C07C0
3E0780
3E0780
3E0F80
1E0F00
1F0F00
1F0F00
0F1E00
0F9E00
0F9E00
079E00
07FC00
07FC00
03FC00
03F800
03F800
03F800
01F000
01F000
01F000
01E000
03E000
07E000
3FC000
3FC000
3F8000
3E0000
ENDCHAR
STARTCHAR 007A
ENCODING 122
SWIDTH 488 0
DWIDTH 19 0
BBX 15 22 2 0
BITMAP
FFFE
FFFE
FFFE
FFFE
007C
00FC
01F8
01F8
03F0
03E0
07E0
0FC0
0F80
1F80
3F00
3F00
7E00
7C00
FFFE
FFFE
FFFE
FFFE
ENDCHAR
STARTCHAR 007B
ENCODING 123
SWIDTH 385 0
DWIDTH 15 0
BBX 10 36 3 -5
BITMAP
0FC0
1FC0
3FC0
3E00
3C00
3C00
3C00
3C00
3C00
3C00
3C00
3C00
3C00
3C00
3C00
3C00
F800
F800
F000
F800
7C00
3C00
3C00
3C00
3C00
3C00
3C00
3C00
3C00
3C00
3C00
3C00
3E00
3FC0
1FC0
0FC0
ENDCHAR
STARTCHAR 007C
ENCODING 124
SWIDTH 308 0
DWIDTH 12 0
BBX 4 37 4 -9
BITMAP
F0
F0
F0
F0
F0
F0
F0
F0
F0
F0
F0
F0
F0
F0
F0
F0
F0
F0
F0
F0
F0
F0
F0
F0
F0
F0
F0
F0
F0
F0
F0
F0
F0
F0
F0
F0
F0
ENDCHAR
STARTCHAR 007D
ENCODING 125
SWIDTH 385 0
DWIDTH 15 0
BBX 10 36 3 -5
BITMAP
FC00
FE00
FF00
1F00
1F00
1F00
1F00
1F00
1F00
0F00
0F00
0F00
0F00
0F00
0F00
0F00
0FC0
07C0
03C0
07C0
0F80
0F00
0F00
0F00
0F00
0F00
0F00
0F00
0F00
0F00
0F00
0F00
1F00
FF00
FE00
FC00
ENDCHAR
STARTCHAR 007E
ENCODING 126
SWIDTH 565 0
DWIDTH 22 0
BBX 18 6 2 21
BITMAP
1F0100
7FE780
FFFFC0
FFFF80
70FF00
201C00
ENDCHAR
STARTCHAR 00A0
ENCODING 160
SWIDTH 411 0
DWIDTH 16 0
BBX 0 0 0 0
BITMAP
ENDCHAR
STARTCHAR 00A1
ENCODING 161
SWIDTH 360 0
DWIDTH 14 0
BBX 6 28 4 -7
BITMAP
78
FC
FC
FC
78
00
00
00
00
78
78
78
78
78
78
7C
FC
FC
FC
FC
FC
FC
FC
FC
FC
FC
FC
FC
ENDCHAR
STARTCHAR 00A2
ENCODING 162
SWIDTH 540 0
DWIDTH 21 0
BBX 16 27 3 0
BITMAP
01E0
01E0
01E0
03F0
0FFE
1FFF
3FFE
7E0C
7804
F800
F000
F000
F000
F000
F000
F000
F000
7800
7C02
7E0E
3FFF
1FFF
0FFE
03F0
01E0
01E0
01E0
ENDCHAR
STARTCHAR 00A3
ENCODING 163
SWIDTH 540 0
DWIDTH 21 0
BBX 16 27 3 0
BITMAP
07F0
0FFE
1FFE
3FFC
3E0C
3C04
3C00
3C00
3C00
3C00
3C00
FFF0
FFF0
FFF0
FFF0
1C00
1E00
1E00
1E00
1E00
1E00
1E00
3E00
FFFF
FFFF
FFFF
FFFF
ENDCHAR
STARTCHAR 00A4
ENCODING 164
SWIDTH 668 0
DWIDTH 26 0
BBX 21 27 2 0
BITMAP
007E00
01FFC0
03FFE0
07FFF0
0FC1F8
0F00E0
0F0040
1E0000
1E0000
7FFF00
7FFF00
7FFE00
9E0000
1E0000
1E0000
7FFE00
FFFE00
FFFE00
1E0000
1F0000
0F0020
0F8070
0FC1F0
07FFF8
03FFE0
01FFC0
007F00
ENDCHAR
STARTCHAR 00A5
ENCODING 165
SWIDTH 617 0
DWIDTH 24 0
BBX 20 27 2 0
BITMAP
F801F0
7C03E0
7C03E0
3E07C0
3E07C0
1E0780
1F0F80
0F0F00
0F9F00
079E00
079E00
7FFFE0
7FFFE0
7FFFE0
01F800
00F000
00F000
00F000
00F000
7FFFE0
7FFFE0
7FFFE0
00F000
00F000
00F000
00F000
00F000
ENDCHAR
STARTCHAR 00A6
ENCODING 166
SWIDTH 308 0
DWIDTH 12 0
BBX 4 37 4 -9
BITMAP
F0
F0
F0
F0
F0
F0
F0
F0
F0
F0
F0
F0
F0
F0
F0
F0
00
00
00
00
00
F0
F0
F0
F0
F0
F0
F0
F0
F0
F0
F0
F0
F0
F0
F0
F0
ENDCHAR
STARTCHAR 00A7
ENCODING 167
SWIDTH 514 0
DWIDTH 20 0
BBX 14 31 3 -4
BITMAP
0FE0
3FFC
7FF8
FFF8
FC38
F800
F800
FC00
7F00
3FC0
1FF0
3FF8
7FFC
F87C
F03C
F03C
F03C
F878
7FF8
3FE0
0FF0
03F8
00F8
007C
003C
603C
787C
7FFC
FFF8
3FF0
0FE0
ENDCHAR
STARTCHAR 00A8
ENCODING 168
SWIDTH 411 0
DWIDTH 16 0
BBX 14 5 1 25
BITMAP
7038
F87C
F87C
F87C
7038
ENDCHAR
STARTCHAR 00A9
ENCODING 169
SWIDTH 874 0
DWIDTH 34 0
BBX 28 27 3 0
BITMAP
003FC000
00FFF000
03E07C00
07000E00
0E000700
181F8180
307FE1C0
70FFF8E0
61F07060
61E02060
C3E00030
C3C00030
C3C00030
C3C00030
C3C00030
C3C00030
C3C00030
61E02060
61F07060
70FFF8E0
307FF0C0
181FC180
0C000700
07000E00
03C03C00
00FFF000
003FC000
ENDCHAR
STARTCHAR 00AA
ENCODING 170
SWIDTH 437 0
DWIDTH 17 0
BBX 11 14 3 14
BITMAP
1F00
FF80
FFC0
43C0
03C0
1FC0
7FC0
FFC0
F3C0
F3C0
F3C0
FFE0
7DC0
7800
ENDCHAR
STARTCHAR 00AB
ENCODING 171
SWIDTH 540 0
DWIDTH 21 0
BBX 17 16 2 4
BITMAP
040400
0F0700
1F0F80
1E1F00
3E1E00
3C3E00
7C3C00
787C00
F87C00
7C3C00
3C3E00
3E1E00
1E1F00
1F0F00
0F0780
040400
ENDCHAR
STARTCHAR 00AD
ENCODING 173
SWIDTH 437 0
DWIDTH 17 0
BBX 9 4 4 10
BITMAP
FF80
FF80
FF80
FF80
ENDCHAR
STARTCHAR 00AE
ENCODING 174
SWIDTH 565 0
DWIDTH 22 0
BBX 14 13 4 15
BITMAP
0FC0
1860
6F90
4FC8
8CC4
8CC4
8F84
8D84
8CC4
4CC8
6038
1860
0FC0
ENDCHAR
STARTCHAR 00AF
ENCODING 175
SWIDTH 462 0
DWIDTH 18 0
BBX 12 3 3 26
BITMAP
FFF0
FFF0
FFF0
ENDCHAR
STARTCHAR 00B0
ENCODING 176
SWIDTH 514 0
DWIDTH 20 0
BBX 12 13 4 15
BITMAP
0F00
3FC0
70E0
6060
C030
C030
C030
C030
C030
6060
70E0
3FC0
0F00
ENDCHAR
STARTCHAR 00B1
ENCODING 177
SWIDTH 591 0
DWIDTH 23 0
BBX 17 22 2 0
BITMAP
01E000
01E000
01E000
01E000
01E000
01E000
FFFF80
FFFF80
FFFF80
FFFF80
01E000
01E000
01E000
01E000
01E000
01E000
000000
000000
FFFF80
FFFF80
FFFF80
FFFF80
ENDCHAR
STARTCHAR 00B2
ENCODING 178
SWIDTH 411 0
DWIDTH 16 0
BBX 11 17 2 13
BITMAP
1F00
7FC0
FFC0
63E0
41E0
01E0
01E0
03C0
07C0
0780
0F00
1E00
3C00
7800
FFE0
FFE0
FFE0
ENDCHAR
STARTCHAR 00B3
ENCODING 179
SWIDTH 411 0
DWIDTH 16 0
BBX 12 17 1 13
BITMAP
0F80
3FE0
7FF0
31F0
00F0
00F0
01F0
0FE0
0FC0
0FE0
01F0
00F0
00F0
61F0
7FE0
FFC0
1F80
ENDCHAR
STARTCHAR 00B4
ENCODING 180
SWIDTH 308 0
DWIDTH 12 0
BBX 9 6 1 25
BITMAP
0C00
1F00
3F80
7E00
F800
2000
ENDCHAR
STARTCHAR 00B5
ENCODING 181
SWIDTH 642 0
DWIDTH 25 0
BBX 17 31 4 -9
BITMAP
F00780
F00780
F00780
F00780
F00780
F00780
F00780
F00780
F00780
F00780
F00780
F00780
F00780
F00780
F00780
F00780
F00780
F80F80
FC1F80
FFFF80
FFFF80
FFF780
F7C000
F00000
F00000
F00000
F00000
F00000
F00000
F00000
F00000
ENDCHAR
STARTCHAR 00B6
ENCODING 182
SWIDTH 565 0
DWIDTH 22 0
BBX 15 20 3 0
BITMAP
00FE
07FE
1FFE
3FFE
3FFE
7FFE
7FFE
FFFE
FFFE
FFFE
FFFE
FFFE
FFFE
7FFE
7FFE
3FFE
3FFE
1FFE
07FE
00FE
ENDCHAR
STARTCHAR 00B7
ENCODING 183
SWIDTH 308 0
DWIDTH 12 0
BBX 6 6 3 8
BITMAP
78
FC
FC
FC
FC
78
ENDCHAR
STARTCHAR 00B8
ENCODING 184
SWIDTH 437 0
DWIDTH 17 0
BBX 8 10 5 -10
BITMAP
30
30
7C
7E
07
07
87
FF
FE
7C
ENDCHAR
STARTCHAR 00B9
ENCODING 185
SWIDTH 334 0
DWIDTH 13 0
BBX 8 17 1 13
BITMAP
0F
1F
3F
FF
FF
6F
0F
0F
0F
0F
0F
0F
0F
0F
0F
0F
0F
ENDCHAR
STARTCHAR 00BA
ENCODING 186
SWIDTH 437 0
DWIDTH 17 0
BBX 11 13 3 15
BITMAP
1F00
3F80
7FC0
FBE0
F1E0
F1E0
F1E0
F1E0
F1E0
FBE0
7FC0
3F80
1F00
ENDCHAR
STARTCHAR 00BB
ENCODING 187
SWIDTH 565 0
DWIDTH 22 0
BBX 16 16 3 4
BITMAP
2010
F070
F8F8
787C
7C3C
3C3E
3E1E
1E1F
1F1F
3E1E
3C3E
7C3C
787C
F878
F0F8
2010
ENDCHAR
STARTCHAR 00BC
ENCODING 188
SWIDTH 1028 0
DWIDTH 40 0
BBX 33 32 3 -2
BITMAP
0F00007800
1F0000F000
3F0000E000
FF0001C000
FF0003C000
6F00038000
0F00070000
0F000F0000
0F000E0000
0F001C0000
0F003C0000
0F00380000
0F00700000
0F00F00000
0F00E00000
0F01C01F00
0F03C01F00
0003803F00
0007007F00
000F007F00
000E00EF00
001C00CF00
003C01CF00
0038038F00
0070038F00
00F007FF80
00E003FF80
01C003FF80
03C0000F00
0380000F00
0700000F00
0F00000000
ENDCHAR
STARTCHAR 00BD
ENCODING 189
SWIDTH 1028 0
DWIDTH 40 0
BBX 34 32 3 -2
BITMAP
0F00007800
1F0000F000
3F0000E000
FF0001C000
FF0003C000
6F00038000
0F00070000
0F000F0000
0F000E0000
0F001C0000
0F003C0000
0F00380000
0F00700000
0F00F00000
0F00E00000
0F01C03E00
0F03C0FF80
000381FF80
000700C7C0
000F0083C0
000E0003C0
001C0003C0
003C000780
0038000F80
0070000F00
00F0001E00
00E0003C00
01C0007800
03C000F000
038001FFC0
070001FFC0
0F0001FFC0
ENDCHAR
STARTCHAR 00BE
ENCODING 190
SWIDTH 1002 0
DWIDTH 39 0
BBX 33 31 2 -1
BITMAP
0F80001C00
3FE0003800
7FE0007800
31F0007000
00F000E000
00F001C000
01E003C000
0FE0038000
0FC0070000
0FE00F0000
00F00E0000
00F01C0000
00F03C0000
61F0380000
7FE0700000
FFC0F00F00
1F80E01F00
0001C03F00
0003803F00
0007806F00
0007006F00
000E00CF00
001E01CF00
001C018F00
0038030F00
007803FF80
007003FF80
00E003FF80
01E0000F00
01C0000F00
0380000F00
ENDCHAR
STARTCHAR 00BF
ENCODING 191
SWIDTH 540 0
DWIDTH 21 0
BBX 15 28 4 -7
BITMAP
03C0
07E0
07E0
07E0
03C0
0000
0000
0000
03C0
03C0
03C0
03C0
07C0
0FC0
3F80
7F00
7C00
F800
F000
F000
F000
F000
F808
FC3C
7FFC
7FFE
3FF8
0FE0
ENDCHAR
STARTCHAR 00C0
ENCODING 192
SWIDTH 668 0
DWIDTH 26 0
BBX 22 35 2 0
BITMAP
018000
07C000
0FE000
03F000
00F800
002000
000000
000000
00FC00
00FC00
01FE00
01FE00
01FE00
03FE00
03DF00
03CF00
03CF00
07CF80
078F80
078780
0F87C0
0F87C0
0F03C0
1F03C0
1F03E0
1FFFE0
1FFFE0
3FFFF0
3FFFF0
3E01F0
7C00F8
7C00F8
7C00F8
F8007C
F8007C
ENDCHAR
STARTCHAR 00C1
ENCODING 193
SWIDTH 668 0
DWIDTH 26 0
BBX 22 35 2 0
BITMAP
000C00
001F00
003F80
007E00
00F800
002000
000000
000000
00FC00
00FC00
01FE00
01FE00
01FE00
03FE00
03DF00
03CF00
03CF00
07CF80
078F80
078780
0F87C0
0F87C0
0F03C0
1F03C0
1F03E0
1FFFE0
1FFFE0
3FFFF0
3FFFF0
3E01F0
7C00F8
7C00F8
7C00F8
F8007C
F8007C
ENDCHAR
STARTCHAR 00C2
ENCODING 194
SWIDTH 668 0
DWIDTH 26 0
BBX 22 35 2 0
BITMAP
002000
00F800
03FE00
07FF00
0FDF80
070700
040200
000000
00FC00
00FC00
01FE00
01FE00
01FE00
03FE00
03DF00
03CF00
03CF00
07CF80
078F80
078780
0F87C0
0F87C0
0F03C0
1F03C0
1F03E0
1FFFE0
1FFFE0
3FFFF0
3FFFF0
3E01F0
7C00F8
7C00F8
7C00F8
F8007C
F8007C
ENDCHAR
STARTCHAR 00C3
ENCODING 195
SWIDTH 668 0
DWIDTH 26 0
BBX 22 34 2 0
BITMAP
03C100
07FFC0
0FFF80
0E3F00
040000
000000
000000
00FC00
00FC00
01FE00
01FE00
01FE00
03FE00
03DF00
03CF00
03CF00
07CF80
078F80
078780
0F87C0
0F87C0
0F03C0
1F03C0
1F03E0
1FFFE0
1FFFE0
3FFFF0
3FFFF0
3E01F0
7C00F8
7C00F8
7C00F8
F8007C
F8007C
ENDCHAR
STARTCHAR 00C4
ENCODING 196
SWIDTH 668 0
DWIDTH 26 0
BBX 22 34 2 0
BITMAP
070380
0F87C0
0F87C0
0F87C0
070380
000000
000000
00FC00
00FC00
01FE00
01FE00
01FE00
03FE00
03DF00
03CF00
03CF00
07CF80
078F80
078780
0F87C0
0F87C0
0F03C0
1F03C0
1F03E0
1FFFE0
1FFFE0
3FFFF0
3FFFF0
3E01F0
7C00F8
7C00F8
7C00F8
F8007C
F8007C
ENDCHAR
STARTCHAR 00C5
ENCODING 197
SWIDTH 668 0
DWIDTH 26 0
BBX 22 37 2 0
BITMAP
003800
007C00
00EE00
00C600
00C600
00EE00
007C00
003800
000000
000000
00FC00
00FC00
01FE00
01FE00
01FE00
03FE00
03DF00
03CF00
03CF00
07CF80
078F80
078780
0F87C0
0F87C0
0F03C0
1F03C0
1F03E0
1FFFE0
1FFFE0
3FFFF0
3FFFF0
3E01F0
7C00F8
7C00F8
7C00F8
F8007C
F8007C
ENDCHAR
STARTCHAR 00C6
ENCODING 198
SWIDTH 951 0
DWIDTH 37 0
BBX 32 27 2 0
BITMAP
000FFFFE
001FFFFE
001FFFFE
003FFFFE
003C7800
007C7800
00787800
00F87800
00F87800
00F07800
01F07800
01E07FFC
03E07FFC
03E07FFC
07C07FFC
07C07800
0F807800
0FFFF800
0FFFF800
1FFFF800
1FFFF800
3E007800
3E007800
7E007FFF
7C007FFF
FC007FFF
F8007FFF
ENDCHAR
STARTCHAR 00C7
ENCODING 199
SWIDTH 642 0
DWIDTH 25 0
BBX 20 36 3 -9
BITMAP
00FE00
03FF80
0FFFC0
1FFFF0
3F83E0
3E01C0
7E00C0
7C0000
7C0000
F80000
F80000
F80000
F80000
F80000
F80000
F80000
F80000
F80000
7C0000
7C0000
7E0040
3E00E0
3F83E0
1FFFF0
0FFFE0
07FF80
01FE00
003000
007000
007E00
003E00
000F00
000700
008E00
00FE00
007C00
ENDCHAR
STARTCHAR 00C8
ENCODING 200
SWIDTH 565 0
DWIDTH 22 0
BBX 15 35 4 0
BITMAP
0600
1F00
3F80
0FC0
03E0
0080
0000
0000
FFFE
FFFE
FFFE
FFFE
F000
F000
F000
F000
F000
F000
F000
FFFC
FFFC
FFFC
FFFC
F000
F000
F000
F000
F000
F000
F000
F000
FFFE
FFFE
FFFE
FFFE
ENDCHAR
STARTCHAR 00C9
ENCODING 201
SWIDTH 565 0
DWIDTH 22 0
BBX 15 35 4 0
BITMAP
00C0
01F0
03F8
07E0
0F80
0200
0000
0000
FFFE
FFFE
FFFE
FFFE
F000
F000
F000
F000
F000
F000
F000
FFFC
FFFC
FFFC
FFFC
F000
F000
F000
F000
F000
F000
F000
F000
FFFE
FFFE
FFFE
FFFE
ENDCHAR
STARTCHAR 00CA
ENCODING 202
SWIDTH 565 0
DWIDTH 22 0
BBX 15 35 4 0
BITMAP
0100
07C0
1FF0
3FF8
7EFC
3838
2010
0000
FFFE
FFFE
FFFE
FFFE
F000
F000
F000
F000
F000
F000
F000
FFFC
FFFC
FFFC
FFFC
F000
F000
F000
F000
F000
F000
F000
F000
FFFE
FFFE
FFFE
FFFE
ENDCHAR
STARTCHAR 00CB
ENCODING 203
SWIDTH 565 0
DWIDTH 22 0
BBX 15 34 4 0
BITMAP
381C
7C3E
7C3E
7C3E
381C
0000
0000
FFFE
FFFE
FFFE
FFFE
F000
F000
F000
F000
F000
F000
F000
FFFC
FFFC
FFFC
FFFC
F000
F000
F000
F000
F000
F000
F000
F000
FFFE
FFFE
FFFE
FFFE
ENDCHAR
STARTCHAR 00CC
ENCODING 204
SWIDTH 334 0
DWIDTH 13 0
BBX 9 35 0 0
BITMAP
1800
7C00
FE00
3F00
0F80
0200
0000
0000
0780
0780
0780
0780
0780
0780
0780
0780
0780
0780
0780
0780
0780
0780
0780
0780
0780
0780
0780
0780
0780
0780
0780
0780
0780
0780
0780
ENDCHAR
STARTCHAR 00CD
ENCODING 205
SWIDTH 334 0
DWIDTH 13 0
BBX 9 35 4 0
BITMAP
0C00
1F00
3F80
7E00
F800
2000
0000
0000
7800
7800
7800
7800
7800
7800
7800
7800
7800
7800
7800
7800
7800
7800
7800
7800
7800
7800
7800
7800
7800
7800
7800
7800
7800
7800
7800
ENDCHAR
STARTCHAR 00CE
ENCODING 206
SWIDTH 334 0
DWIDTH 13 0
BBX 13 35 0 0
BITMAP
0200
0F80
3FE0
7FF0
FDF8
7070
4020
0000
0780
0780
0780
0780
0780
0780
0780
0780
0780
0780
0780
0780
0780
0780
0780
0780
0780
0780
0780
0780
0780
0780
0780
0780
0780
0780
0780
ENDCHAR
STARTCHAR 00CF
ENCODING 207
SWIDTH 334 0
DWIDTH 13 0
BBX 14 34 0 0
BITMAP
7038
F87C
F87C
F87C
7038
0000
0000
0780
0780
0780
0780
0780
0780
0780
0780
0780
0780
0780
0780
0780
0780
0780
0780
0780
0780
0780
0780
0780
0780
0780
0780
0780
0780
0780
ENDCHAR
STARTCHAR 00D0
ENCODING 208
SWIDTH 694 0
DWIDTH 27 0
BBX 22 27 2 0
BITMAP
3FFC00
3FFF00
3FFFC0
3FFFE0
3C07F0
3C03F0
3C01F8
3C00F8
3C00F8
3C007C
3C007C
FFF07C
FFF07C
FFF07C
FFF07C
3C007C
3C007C
3C007C
3C00F8
3C00F8
3C01F8
3C03F0
3C07F0
3FFFE0
3FFFC0
3FFF00
3FFC00
ENDCHAR
STARTCHAR 00D1
ENCODING 209
SWIDTH 720 0
DWIDTH 28 0
BBX 20 34 4 0
BITMAP
03C100
07FFC0
0FFF80
0E3F00
040000
000000
000000
F000F0
F800F0
FC00F0
FC00F0
FE00F0
FF00F0
FF00F0
FF80F0
FFC0F0
FFE0F0
F7E0F0
F7F0F0
F3F8F0
F1F8F0
F1FCF0
F0FEF0
F07EF0
F07FF0
F03FF0
F01FF0
F01FF0
F00FF0
F00FF0
F007F0
F003F0
F003F0
F001F0
ENDCHAR
STARTCHAR 00D2
ENCODING 210
SWIDTH 745 0
DWIDTH 29 0
BBX 23 36 3 0
BITMAP
00C000
03E000
07F000
01F800
007C00
001000
000000
000000
000000
00FE00
07FFC0
0FFFE0
1FFFF0
3F83F8
3E00F8
7C007C
7C007C
7C007C
F8003E
F8003E
F8003E
F8003E
F8003E
F8003E
F8003E
F8003E
F8003E
7C007C
7C007C
7C007C
3E00F8
3F83F8
1FFFF0
0FFFE0
07FFC0
00FE00
ENDCHAR
STARTCHAR 00D3
ENCODING 211
SWIDTH 745 0
DWIDTH 29 0
BBX 23 36 3 0
BITMAP
000600
000F80
001FC0
003F00
007C00
001000
000000
000000
000000
00FE00
07FFC0
0FFFE0
1FFFF0
3F83F8
3E00F8
7C007C
7C007C
7C007C
F8003E
F8003E
F8003E
F8003E
F8003E
F8003E
F8003E
F8003E
F8003E
7C007C
7C007C
7C007C
3E00F8
3F83F8
1FFFF0
0FFFE0
07FFC0
00FE00
ENDCHAR
STARTCHAR 00D4
ENCODING 212
SWIDTH 745 0
DWIDTH 29 0
BBX 23 36 3 0
BITMAP
001000
007C00
01FF00
03FF80
07EFC0
038380
020100
000000
000000
00FE00
07FFC0
0FFFE0
1FFFF0
3F83F8
3E00F8
7C007C
7C007C
7C007C
F8003E
F8003E
F8003E
F8003E
F8003E
F8003E
F8003E
F8003E
F8003E
7C007C
7C007C
7C007C
3E00F8
3F83F8
1FFFF0
0FFFE0
07FFC0
00FE00
ENDCHAR
STARTCHAR 00D5
ENCODING 213
SWIDTH 745 0
DWIDTH 29 0
BBX 23 35 3 0
BITMAP
01E080
03FFE0
07FFC0
071F80
020000
000000
000000
000000
00FE00
07FFC0
0FFFE0
1FFFF0
3F83F8
3E00F8
7C007C
7C007C
7C007C
F8003E
F8003E
F8003E
F8003E
F8003E
F8003E
F8003E
F8003E
F8003E
7C007C
7C007C
7C007C
3E00F8
3F83F8
1FFFF0
0FFFE0
07FFC0
00FE00
ENDCHAR
STARTCHAR 00D6
ENCODING 214
SWIDTH 745 0
DWIDTH 29 0
BBX 23 35 3 0
BITMAP
0381C0
07C3E0
07C3E0
07C3E0
0381C0
000000
000000
000000
00FE00
07FFC0
0FFFE0
1FFFF0
3F83F8
3E00F8
7C007C
7C007C
7C007C
F8003E
F8003E
F8003E
F8003E
F8003E
F8003E
F8003E
F8003E
F8003E
7C007C
7C007C
7C007C
3E00F8
3F83F8
1FFFF0
0FFFE0
07FFC0
00FE00
ENDCHAR
STARTCHAR 00D7
ENCODING 215
SWIDTH 617 0
DWIDTH 24 0
BBX 16 16 4 3
BITMAP
1008
381C
7C3E
FE7F
3FFC
1FF8
0FF0
07E0
07F0
0FF0
1FF8
3FFC
7E7E
FC3F
381C
1008
ENDCHAR
STARTCHAR 00D8
ENCODING 216
SWIDTH 745 0
DWIDTH 29 0
BBX 25 27 2 0
BITMAP
007F0200
03FFE700
07FFFF80
0FFFFF00
1FC1FE00
1F007C00
3F007E00
3E00FE00
3E01FE00
7C03FF00
7C07DF00
7C0FDF00
7C1F9F00
7C3F1F00
7C7E1F00
7CFC1F00
7DF81F00
7FF01F00
3FE01E00
3FC03E00
3F803E00
1F807C00
3FC0FC00
7FFFF800
FFFFF000
73FFE000
207F0000
ENDCHAR
STARTCHAR 00D9
ENCODING 217
SWIDTH 694 0
DWIDTH 27 0
BBX 19 35 4 0
BITMAP
030000
0F8000
1FC000
07E000
01F000
004000
000000
000000
F001E0
F001E0
F001E0
F001E0
F001E0
F001E0
F001E0
F001E0
F001E0
F001E0
F001E0
F001E0
F001E0
F001E0
F001E0
F001E0
F001E0
F001E0
F001E0
F001E0
F803E0
7803C0
7E0FC0
3FFF80
3FFF80
1FFE00
03F800
ENDCHAR
STARTCHAR 00DA
ENCODING 218
SWIDTH 694 0
DWIDTH 27 0
BBX 19 35 4 0
BITMAP
001800
003E00
007F00
00FC00
01F000
004000
000000
000000
F001E0
F001E0
F001E0
F001E0
F001E0
F001E0
F001E0
F001E0
F001E0
F001E0
F001E0
F001E0
F001E0
F001E0
F001E0
F001E0
F001E0
F001E0
F001E0
F001E0
F803E0
7803C0
7E0FC0
3FFF80
3FFF80
1FFE00
03F800
ENDCHAR
STARTCHAR 00DB
ENCODING 219
SWIDTH 694 0
DWIDTH 27 0
BBX 19 35 4 0
BITMAP
004000
01F000
07FC00
0FFE00
1FBF00
0E0E00
080400
000000
F001E0
F001E0
F001E0
F001E0
F001E0
F001E0
F001E0
F001E0
F001E0
F001E0
F001E0
F001E0
F001E0
F001E0
F001E0
F001E0
F001E0
F001E0
F001E0
F001E0
F803E0
7803C0
7E0FC0
3FFF80
3FFF80
1FFE00
03F800
ENDCHAR
STARTCHAR 00DC
ENCODING 220
SWIDTH 694 0
DWIDTH 27 0
BBX 19 34 4 0
BITMAP
0E0700
1F0F80
1F0F80
1F0F80
0E0700
000000
000000
F001E0
F001E0
F001E0
F001E0
F001E0
F001E0
F001E0
F001E0
F001E0
F001E0
F001E0
F001E0
F001E0
F001E0
F001E0
F001E0
F001E0
F001E0
F001E0
F001E0
F803E0
7803C0
7E0FC0
3FFF80
3FFF80
1FFE00
03F800
ENDCHAR
STARTCHAR 00DD
ENCODING 221
SWIDTH 591 0
DWIDTH 23 0
BBX 20 35 2 0
BITMAP
001800
003E00
007F00
00FC00
01F000
004000
000000
000000
F801F0
7C03E0
7C03E0
7E07C0
3E07C0
3E0780
1F0F80
1F0F00
0F9F00
0F9E00
079E00
07FC00
03FC00
03F800
01F800
01F800
00F000
00F000
00F000
00F000
00F000
00F000
00F000
00F000
00F000
00F000
00F000
ENDCHAR
STARTCHAR 00DE
ENCODING 222
SWIDTH 617 0
DWIDTH 24 0
BBX 18 27 4 0
BITMAP
F00000
F00000
F00000
FFF000
FFFC00
FFFF00
FFFF80
F00F80
F007C0
F003C0
F003C0
F003C0
F003C0
F003C0
F003C0
F00780
F01F80
FFFF00
FFFF00
FFFC00
FFE000
F00000
F00000
F00000
F00000
F00000
F00000
ENDCHAR
STARTCHAR 00DF
ENCODING 223
SWIDTH 642 0
DWIDTH 25 0
BBX 21 30 2 0
BITMAP
01FC00
07FF00
0FFF80
0FFFC0
1F07C0
1E03C0
1E03C0
1E03C0
FE03C0
FE03C0
FE0780
FE0F00
1E1F00
1E3E00
1E3F80
1E3FC0
1E0FE0
1E03F0
1E01F0
1E01F8
1E00F8
1E00F8
1E00F8
1E00F8
1E01F8
1E03F8
1E1FF0
1E1FE0
1E1FC0
1E1F00
ENDCHAR
STARTCHAR 00E0
ENCODING 224
SWIDTH 591 0
DWIDTH 23 0
BBX 18 31 3 0
BITMAP
030000
0F8000
1FC000
07E000
01F000
004000
000000
000000
000000
07F800
3FFE00
7FFF00
7FFF00
7C0F80
200780
000780
000780
00FF80
0FFF80
1FFF80
7FFF80
7F0780
F80780
F00780
F00780
F00780
F81F80
FFFF80
7FF7C0
3FE780
1F8300
ENDCHAR
STARTCHAR 00E1
ENCODING 225
SWIDTH 591 0
DWIDTH 23 0
BBX 18 31 3 0
BITMAP
003000
007C00
00FE00
01F800
03E000
008000
000000
000000
000000
07F800
3FFE00
7FFF00
7FFF00
7C0F80
200780
000780
000780
00FF80
0FFF80
1FFF80
7FFF80
7F0780
F80780
F00780
F00780
F00780
F81F80
FFFF80
7FF7C0
3FE780
1F8300
ENDCHAR
STARTCHAR 00E2
ENCODING 226
SWIDTH 591 0
DWIDTH 23 0
BBX 18 31 3 0
BITMAP
008000
03E000
0FF800
1FFC00
3F7E00
1C1C00
100800
000000
000000
07F800
3FFE00
7FFF00
7FFF00
7C0F80
200780
000780
000780
00FF80
0FFF80
1FFF80
7FFF80
7F0780
F80780
F00780
F00780
F00780
F81F80
FFFF80
7FF7C0
3FE780
1F8300
ENDCHAR
STARTCHAR 00E3
ENCODING 227
SWIDTH 591 0
DWIDTH 23 0
BBX 18 30 3 0
BITMAP
0F0400
1FFF00
3FFE00
38FC00
100000
000000
000000
000000
07F800
3FFE00
7FFF00
7FFF00
7C0F80
200780
000780
000780
00FF80
0FFF80
1FFF80
7FFF80
7F0780
F80780
F00780
F00780
F00780
F81F80
FFFF80
7FF7C0
3FE780
1F8300
ENDCHAR
STARTCHAR 00E4
ENCODING 228
SWIDTH 591 0
DWIDTH 23 0
BBX 18 30 3 0
BITMAP
1C0E00
3E1F00
3E1F00
3E1F00
1C0E00
000000
000000
000000
07F800
3FFE00
7FFF00
7FFF00
7C0F80
200780
000780
000780
00FF80
0FFF80
1FFF80
7FFF80
7F0780
F80780
F00780
F00780
F00780
F81F80
FFFF80
7FF7C0
3FE780
1F8300
ENDCHAR
STARTCHAR 00E5
ENCODING 229
SWIDTH 591 0
DWIDTH 23 0
BBX 18 32 3 0
BITMAP
00E000
01F000
03B800
031800
031800
03B800
01F000
00E000
000000
000000
07F800
3FFE00
7FFF00
7FFF00
7C0F80
200780
000780
000780
00FF80
0FFF80
1FFF80
7FFF80
7F0780
F80780
F00780
F00780
F00780
F81F80
FFFF80
7FF7C0
3FE780
1F8300
ENDCHAR
STARTCHAR 00E6
ENCODING 230
SWIDTH 951 0
DWIDTH 37 0
BBX 31 22 3 0
BITMAP
07F81F80
3FFE7FE0
FFFFFFF0
7FFFFFF8
7C1FE0FC
200F803C
000F803E
000F001E
01FF001E
0FFFFFFE
3FFFFFFE
7F0FFFFE
780F0000
F80F0000
F00F0000
F00F8000
F00F8020
F01FE0E0
F83FFFF0
7FF9FFF0
3FF0FFE0
1F803F00
ENDCHAR
STARTCHAR 00E7
ENCODING 231
SWIDTH 565 0
DWIDTH 22 0
BBX 17 32 3 -10
BITMAP
03F000
0FFC00
3FFF00
3FFE00
7E0E00
7C0400
780000
F00000
F00000
F00000
F00000
F00000
F00000
F00000
F80000
780000
7C0200
7F0700
3FFF00
1FFF80
0FFF00
03F800
00C000
00C000
01F800
01F800
001C00
001C00
021C00
03FC00
03F800
01F000
ENDCHAR
STARTCHAR 00E8
ENCODING 232
SWIDTH 617 0
DWIDTH 24 0
BBX 18 31 3 0
BITMAP
030000
0F8000
1FC000
07E000
01F000
004000
000000
000000
000000
03F800
0FFC00
1FFE00
3FFF00
7E0F80
780780
780380
F003C0
F003C0
FFFFC0
FFFFC0
FFFFC0
FFFFC0
F00000
F00000
700000
780100
7E0700
3FFF80
1FFF80
0FFF00
03F800
ENDCHAR
STARTCHAR 00E9
ENCODING 233
SWIDTH 617 0
DWIDTH 24 0
BBX 18 31 3 0
BITMAP
001800
003E00
007F00
00FC00
01F000
004000
000000
000000
000000
03F800
0FFC00
1FFE00
3FFF00
7E0F80
780780
780380
F003C0
F003C0
FFFFC0
FFFFC0
FFFFC0
FFFFC0
F00000
F00000
700000
780100
7E0700
3FFF80
1FFF80
0FFF00
03F800
ENDCHAR
STARTCHAR 00EA
ENCODING 234
SWIDTH 617 0
DWIDTH 24 0
BBX 18 31 3 0
BITMAP
004000
01F000
07FC00
0FFE00
1FBF00
0E0E00
080400
000000
000000
03F800
0FFC00
1FFE00
3FFF00
7E0F80
780780
780380
F003C0
F003C0
FFFFC0
FFFFC0
FFFFC0
FFFFC0
F00000
F00000
700000
780100
7E0700
3FFF80
1FFF80
0FFF00
03F800
ENDCHAR
STARTCHAR 00EB
ENCODING 235
SWIDTH 617 0
DWIDTH 24 0
BBX 18 30 3 0
BITMAP
0E0700
1F0F80
1F0F80
1F0F80
0E0700
000000
000000
000000
03F800
0FFC00
1FFE00
3FFF00
7E0F80
780780
780380
F003C0
F003C0
FFFFC0
FFFFC0
FFFFC0
FFFFC0
F00000
F00000
700000
780100
7E0700
3FFF80
1FFF80
0FFF00
03F800
ENDCHAR
STARTCHAR 00EC
ENCODING 236
SWIDTH 308 0
DWIDTH 12 0
BBX 9 31 0 0
BITMAP
1800
7C00
FE00
3F00
0F80
0200
0000
0000
0000
0F00
0F00
0F00
0F00
0F00
0F00
0F00
0F00
0F00
0F00
0F00
0F00
0F00
0F00
0F00
0F00
0F00
0F00
0F00
0F00
0F00
0F00
ENDCHAR
STARTCHAR 00ED
ENCODING 237
SWIDTH 308 0
DWIDTH 12 0
BBX 9 31 4 0
BITMAP
0C00
1F00
3F80
7E00
F800
2000
0000
0000
0000
F000
F000
F000
F000
F000
F000
F000
F000
F000
F000
F000
F000
F000
F000
F000
F000
F000
F000
F000
F000
F000
F000
ENDCHAR
STARTCHAR 00EE
ENCODING 238
SWIDTH 308 0
DWIDTH 12 0
BBX 13 31 -1 0
BITMAP
0200
0F80
3FE0
7FF0
FDF8
7070
4020
0000
0000
0780
0780
0780
0780
0780
0780
0780
0780
0780
0780
0780
0780
0780
0780
0780
0780
0780
0780
0780
0780
0780
0780
ENDCHAR
STARTCHAR 00EF
ENCODING 239
SWIDTH 308 0
DWIDTH 12 0
BBX 14 30 -1 0
BITMAP
7038
F87C
F87C
F87C
7038
0000
0000
0000
0780
0780
0780
0780
0780
0780
0780
0780
0780
0780
0780
0780
0780
0780
0780
0780
0780
0780
0780
0780
0780
0780
ENDCHAR
STARTCHAR 00F0
ENCODING 240
SWIDTH 642 0
DWIDTH 25 0
BBX 19 31 3 0
BITMAP
001800
007980
003FC0
003FC0
007E00
00FE00
007F00
004F00
000F80
03E780
0FFF80
1FFFC0
3FFFC0
7E0FC0
7807E0
7803E0
F001E0
F001E0
F001E0
F001E0
F001E0
F001E0
F001E0
F001E0
7803C0
7803C0
7E0FC0
3FFF80
1FFF00
0FFE00
03F800
ENDCHAR
STARTCHAR 00F1
ENCODING 241
SWIDTH 642 0
DWIDTH 25 0
BBX 17 30 4 0
BITMAP
0F0400
1FFF00
3FFE00
38FC00
100000
000000
000000
000000
F1F800
F7FE00
FFFF00
FFFF00
FC1F00
F80F80
F00780
F00780
F00780
F00780
F00780
F00780
F00780
F00780
F00780
F00780
F00780
F00780
F00780
F00780
F00780
F00780
ENDCHAR
STARTCHAR 00F2
ENCODING 242
SWIDTH 642 0
DWIDTH 25 0
BBX 19 31 3 0
BITMAP
030000
0F8000
1FC000
07E000
01F000
004000
000000
000000
000000
03F800
0FFE00
1FFF00
3FFF80
7E0FC0
7807C0
7803C0
F001E0
F001E0
F001E0
F001E0
F001E0
F001E0
F001E0
F001E0
7803C0
7803C0
7E0FC0
3FFF80
1FFF00
0FFE00
03F800
ENDCHAR
STARTCHAR 00F3
ENCODING 243
SWIDTH 642 0
DWIDTH 25 0
BBX 19 31 3 0
BITMAP
001800
003E00
007F00
00FC00
01F000
004000
000000
000000
000000
03F800
0FFE00
1FFF00
3FFF80
7E0FC0
7807C0
7803C0
F001E0
F001E0
F001E0
F001E0
F001E0
F001E0
F001E0
F001E0
7803C0
7803C0
7E0FC0
3FFF80
1FFF00
0FFE00
03F800
ENDCHAR
STARTCHAR 00F4
ENCODING 244
SWIDTH 642 0
DWIDTH 25 0
BBX 19 31 3 0
BITMAP
004000
01F000
07FC00
0FFE00
1FBF00
0E0E00
080400
000000
000000
03F800
0FFE00
1FFF00
3FFF80
7E0FC0
7807C0
7803C0
F001E0
F001E0
F001E0
F001E0
F001E0
F001E0
F001E0
F001E0
7803C0
7803C0
7E0FC0
3FFF80
1FFF00
0FFE00
03F800
ENDCHAR
STARTCHAR 00F5
ENCODING 245
SWIDTH 642 0
DWIDTH 25 0
BBX 19 30 3 0
BITMAP
078200
0FFF80
1FFF00
1C7E00
080000
000000
000000
000000
03F800
0FFE00
1FFF00
3FFF80
7E0FC0
7807C0
7803C0
F001E0
F001E0
F001E0
F001E0
F001E0
F001E0
F001E0
F001E0
7803C0
7803C0
7E0FC0
3FFF80
1FFF00
0FFE00
03F800
ENDCHAR
STARTCHAR 00F6
ENCODING 246
SWIDTH 642 0
DWIDTH 25 0
BBX 19 30 3 0
BITMAP
0E0700
1F0F80
1F0F80
1F0F80
0E0700
000000
000000
000000
03F800
0FFE00
1FFF00
3FFF80
7E0FC0
7807C0
7803C0
F001E0
F001E0
F001E0
F001E0
F001E0
F001E0
F001E0
F001E0
7803C0
7803C0
7E0FC0
3FFF80
1FFF00
0FFE00
03F800
ENDCHAR
STARTCHAR 00F8
ENCODING 248
SWIDTH 642 0
DWIDTH 25 0
BBX 21 23 2 -1
BITMAP
01FC20
07FF70
0FFFF8
1FFFE0
3E0FE0
3C07E0
3C0FE0
781FF0
783FF0
787EF0
78FCF0
79F8F0
79F0F0
7BE0F0
7FC0F0
7F80E0
3F01E0
3F83E0
3FFFC0
3FFF80
77FF00
E1FC00
200000
ENDCHAR
STARTCHAR 00F9
ENCODING 249
SWIDTH 642 0
DWIDTH 25 0
BBX 17 31 4 0
BITMAP
060000
1F0000
3F8000
0FC000
03E000
008000
000000
000000
000000
F00780
F00780
F00780
F00780
F00780
F00780
F00780
F00780
F00780
F00780
F00780
F00780
F00780
F00780
F00780
F00780
F80F80
FC1F80
7FFF80
7FFF80
3FF780
0FC780
ENDCHAR
STARTCHAR 00FA
ENCODING 250
SWIDTH 642 0
DWIDTH 25 0
BBX 17 31 4 0
BITMAP
006000
00F800
01FC00
03F000
07C000
010000
000000
000000
000000
F00780
F00780
F00780
F00780
F00780
F00780
F00780
F00780
F00780
F00780
F00780
F00780
F00780
F00780
F00780
F00780
F80F80
FC1F80
7FFF80
7FFF80
3FF780
0FC780
ENDCHAR
STARTCHAR 00FB
ENCODING 251
SWIDTH 642 0
DWIDTH 25 0
BBX 17 31 4 0
BITMAP
008000
03E000
0FF800
1FFC00
3F7E00
1C1C00
100800
000000
000000
F00780
F00780
F00780
F00780
F00780
F00780
F00780
F00780
F00780
F00780
F00780
F00780
F00780
F00780
F00780
F00780
F80F80
FC1F80
7FFF80
7FFF80
3FF780
0FC780
ENDCHAR
STARTCHAR 00FC
ENCODING 252
SWIDTH 642 0
DWIDTH 25 0
BBX 17 30 4 0
BITMAP
381C00
7C3E00
7C3E00
7C3E00
381C00
000000
000000
000000
F00780
F00780
F00780
F00780
F00780
F00780
F00780
F00780
F00780
F00780
F00780
F00780
F00780
F00780
F00780
F00780
F80F80
FC1F80
7FFF80
7FFF80
3FF780
0FC780
ENDCHAR
STARTCHAR 00FD
ENCODING 253
SWIDTH 591 0
DWIDTH 23 0
BBX 19 40 3 -9
BITMAP
003000
007C00
00FE00
01F800
03E000
008000
000000
000000
000000
F803E0
F803E0
7C07C0
7C07C0
7C07C0
3E0780
3E0780
3E0F80
1E0F00
1F0F00
1F0F00
0F1E00
0F9E00
0F9E00
079E00
07FC00
07FC00
03FC00
03F800
03F800
03F800
01F000
01F000
01F000
01E000
03E000
07E000
3FC000
3FC000
3F8000
3E0000
ENDCHAR
STARTCHAR 00FE
ENCODING 254
SWIDTH 642 0
DWIDTH 25 0
BBX 18 37 4 -8
BITMAP
F00000
F00000
F00000
F00000
F00000
F00000
F00000
F1F800
F7FC00
FFFE00
FFFF00
FC1F80
F80780
F00780
F003C0
F003C0
F003C0
F003C0
F003C0
F003C0
F003C0
F003C0
F00780
F80F80
FC1F80
FFFF00
FFFE00
F7FC00
F1F000
F00000
F00000
F00000
F00000
F00000
F00000
F00000
F00000
ENDCHAR
STARTCHAR 00FF
ENCODING 255
SWIDTH 591 0
DWIDTH 23 0
BBX 19 39 3 -9
BITMAP
1C0E00
3E1F00
3E1F00
3E1F00
1C0E00
000000
000000
000000
F803E0
F803E0
7C07C0
7C07C0
7C07C0
3E0780
3E0780
3E0F80
1E0F00
1F0F00
1F0F00
0F1E00
0F9E00
0F9E00
079E00
07FC00
07FC00
03FC00
03F800
03F800
03F800
01F000
01F000
01F000
01E000
03E000
07E000
3FC000
3FC000
3F8000
3E0000
ENDCHAR
STARTCHAR 0100
ENCODING 256
SWIDTH 668 0
DWIDTH 26 0
BBX 22 33 2 0
BITMAP
07FF80
07FF80
07FF80
000000
000000
000000
00FC00
00FC00
01FE00
01FE00
01FE00
03FE00
03DF00
03CF00
03CF00
07CF80
078F80
078780
0F87C0
0F87C0
0F03C0
1F03C0
1F03E0
1FFFE0
1FFFE0
3FFFF0
3FFFF0
3E01F0
7C00F8
7C00F8
7C00F8
F8007C
F8007C
ENDCHAR
STARTCHAR 0101
ENCODING 257
SWIDTH 591 0
DWIDTH 23 0
BBX 18 29 3 0
BITMAP
1FFE00
1FFE00
1FFE00
000000
000000
000000
000000
07F800
3FFE00
7FFF00
7FFF00
7C0F80
200780
000780
000780
00FF80
0FFF80
1FFF80
7FFF80
7F0780
F80780
F00780
F00780
F00780
F81F80
FFFF80
7FF7C0
3FE780
1F8300
ENDCHAR
STARTCHAR 0102
ENCODING 258
SWIDTH 668 0
DWIDTH 26 0
BBX 22 34 2 0
BITMAP
070380
078780
03FF80
03FF00
00FE00
000000
000000
00FC00
00FC00
01FE00
01FE00
01FE00
03FE00
03DF00
03CF00
03CF00
07CF80
078F80
078780
0F87C0
0F87C0
0F03C0
1F03C0
1F03E0
1FFFE0
1FFFE0
3FFFF0
3FFFF0
3E01F0
7C00F8
7C00F8
7C00F8
F8007C
F8007C
ENDCHAR
STARTCHAR 0103
ENCODING 259
SWIDTH 591 0
DWIDTH 23 0
BBX 18 30 3 0
BITMAP
1C0E00
1E1E00
0FFE00
0FFC00
03F800
000000
000000
000000
07F800
3FFE00
7FFF00
7FFF00
7C0F80
200780
000780
000780
00FF80
0FFF80
1FFF80
7FFF80
7F0780
F80780
F00780
F00780
F00780
F81F80
FFFF80
7FF7C0
3FE780
1F8300
ENDCHAR
STARTCHAR 0104
ENCODING 260
SWIDTH 668 0
DWIDTH 26 0
BBX 24 36 1 -9
BITMAP
007E00
00FE00
00FE00
00FF00
01FF00
01EF80
01EF80
03EF80
03E7C0
03C7C0
07C7C0
07C3E0
0783E0
0F83E0
0F83F0
0F81F0
1F01F0
1FFFF8
1FFFF8
1FFFF8
3FFFFC
3E00FC
3E007C
7E007E
7C003E
7C003E
FC003F
000038
000070
0000E0
0001E0
0001E0
0001E2
0001FE
0000FF
00003C
ENDCHAR
STARTCHAR 0105
ENCODING 261
SWIDTH 617 0
DWIDTH 24 0
BBX 18 31 3 -9
BITMAP
07F800
3FFE00
7FFF00
7FFF00
7C0F80
200780
000780
000780
00FF80
0FFF80
1FFF80
7FFF80
7F0780
F80780
F00780
F00780
F00780
F81F80
FFFFC0
7FF780
3FE700
1F8E00
001C00
001C00
003800
003800
003800
003880
003F80
001FC0
000F00
ENDCHAR
STARTCHAR 0106
ENCODING 262
SWIDTH 642 0
DWIDTH 25 0
BBX 20 36 3 0
BITMAP
000C00
001F00
003F80
007E00
00F800
002000
000000
000000
000000
00FE00
03FF80
0FFFC0
1FFFF0
3F83E0
3E01C0
7E00C0
7C0000
7C0000
F80000
F80000
F80000
F80000
F80000
F80000
F80000
F80000
F80000
7C0000
7C0000
7E0040
3E01E0
3F83E0
1FFFF0
0FFFE0
07FF80
00FE00
ENDCHAR
STARTCHAR 0107
ENCODING 263
SWIDTH 565 0
DWIDTH 22 0
BBX 17 31 3 0
BITMAP
001800
003E00
007F00
00FC00
01F000
004000
000000
000000
000000
01F800
0FFF00
1FFF80
3FFF00
3E0700
7C0200
780000
F80000
F00000
F00000
F00000
F00000
F00000
F00000
F80000
780000
7C0200
7E0700
3FFF00
1FFF80
0FFF00
03F800
ENDCHAR
STARTCHAR 010C
ENCODING 268
SWIDTH 642 0
DWIDTH 25 0
BBX 20 36 3 0
BITMAP
030180
038780
07EFC0
01FF00
00FE00
003800
000000
000000
000000
00FE00
03FF80
0FFFC0
1FFFF0
3F83E0
3E01C0
7E00C0
7C0000
7C0000
F80000
F80000
F80000
F80000
F80000
F80000
F80000
F80000
F80000
7C0000
7C0000
7E0040
3E01E0
3F83E0
1FFFF0
0FFFE0
07FF80
00FE00
ENDCHAR
STARTCHAR 010D
ENCODING 269
SWIDTH 565 0
DWIDTH 22 0
BBX 17 31 3 0
BITMAP
0C0600
0E1E00
1FBF00
07FC00
03F800
00E000
000000
000000
000000
01F800
0FFF00
1FFF80
3FFF00
3E0700
7C0200
780000
F80000
F00000
F00000
F00000
F00000
F00000
F00000
F80000
780000
7C0200
7E0700
3FFF00
1FFF80
0FFF00
03F800
ENDCHAR
STARTCHAR 010E
ENCODING 270
SWIDTH 694 0
DWIDTH 27 0
BBX 20 35 4 0
BITMAP
301800
387800
7EFC00
1FF000
0FE000
038000
000000
000000
FFF000
FFFC00
FFFF00
FFFF80
F01FC0
F00FC0
F007E0
F003E0
F003E0
F001F0
F001F0
F001F0
F001F0
F001F0
F001F0
F001F0
F001F0
F001F0
F003E0
F003E0
F007E0
F00FC0
F01FC0
FFFF80
FFFF00
FFFC00
FFF000
ENDCHAR
STARTCHAR 010F
ENCODING 271
SWIDTH 642 0
DWIDTH 25 0
BBX 26 29 3 0
BITMAP
0003C3C0
0003C3C0
0003C3C0
0003C380
0003C780
0003C700
0003C700
07E3C000
0FFBC000
1FFFC000
3FFFC000
7E0FC000
7807C000
7803C000
F003C000
F003C000
F003C000
F003C000
F003C000
F003C000
F003C000
F003C000
7803C000
7807C000
7E0FC000
3FFFC000
1FFBC000
0FFBC000
07E3C000
ENDCHAR
STARTCHAR 0110
ENCODING 272
SWIDTH 694 0
DWIDTH 27 0
BBX 22 27 2 0
BITMAP
3FFC00
3FFF00
3FFFC0
3FFFE0
3C07F0
3C03F0
3C01F8
3C00F8
3C00F8
3C007C
3C007C
FFF07C
FFF07C
FFF07C
FFF07C
3C007C
3C007C
3C007C
3C00F8
3C00F8
3C01F8
3C03F0
3C07F0
3FFFE0
3FFFC0
3FFF00
3FFC00
ENDCHAR
STARTCHAR 0111
ENCODING 273
SWIDTH 642 0
DWIDTH 25 0
BBX 21 29 3 0
BITMAP
0003C0
0003C0
001FF8
001FF8
001FF8
0003C0
0003C0
07E3C0
0FFBC0
1FFFC0
3FFFC0
7E0FC0
7807C0
7803C0
F003C0
F003C0
F003C0
F003C0
F003C0
F003C0
F003C0
F003C0
7803C0
7807C0
7E0FC0
3FFFC0
1FFBC0
0FFBC0
07E3C0
ENDCHAR
STARTCHAR 0112
ENCODING 274
SWIDTH 565 0
DWIDTH 22 0
BBX 15 33 4 0
BITMAP
3FFC
3FFC
3FFC
0000
0000
0000
FFFE
FFFE
FFFE
FFFE
F000
F000
F000
F000
F000
F000
F000
FFFC
FFFC
FFFC
FFFC
F000
F000
F000
F000
F000
F000
F000
F000
FFFE
FFFE
FFFE
FFFE
ENDCHAR
STARTCHAR 0113
ENCODING 275
SWIDTH 617 0
DWIDTH 24 0
BBX 18 29 3 0
BITMAP
1FFE00
1FFE00
1FFE00
000000
000000
000000
000000
03F800
0FFC00
1FFE00
3FFF00
7E0F80
780780
780380
F003C0
F003C0
FFFFC0
FFFFC0
FFFFC0
FFFFC0
F00000
F00000
700000
780100
7E0700
3FFF80
1FFF80
0FFF00
03F800
ENDCHAR
STARTCHAR 0114
ENCODING 276
SWIDTH 565 0
DWIDTH 22 0
BBX 15 34 4 0
BITMAP
7038
7878
3FF8
3FF0
0FE0
0000
0000
FFFE
FFFE
FFFE
FFFE
F000
F000
F000
F000
F000
F000
F000
FFFC
FFFC
FFFC
FFFC
F000
F000
F000
F000
F000
F000
F000
F000
FFFE
FFFE
FFFE
FFFE
ENDCHAR
STARTCHAR 0115
ENCODING 277
SWIDTH 617 0
DWIDTH 24 0
BBX 18 30 3 0
BITMAP
1C0E00
1E1E00
0FFE00
0FFC00
03F800
000000
000000
000000
03F800
0FFC00
1FFE00
3FFF00
7E0F80
780780
780380
F003C0
F003C0
FFFFC0
FFFFC0
FFFFC0
FFFFC0
F00000
F00000
700000
780100
7E0700
3FFF80
1FFF80
0FFF00
03F800
ENDCHAR
STARTCHAR 0116
ENCODING 278
SWIDTH 565 0
DWIDTH 22 0
BBX 15 34 4 0
BITMAP
0780
0FC0
0FC0
0FC0
0780
0000
0000
FFFE
FFFE
FFFE
FFFE
F000
F000
F000
F000
F000
F000
F000
FFFC
FFFC
FFFC
FFFC
F000
F000
F000
F000
F000
F000
F000
F000
FFFE
FFFE
FFFE
FFFE
ENDCHAR
STARTCHAR 0117
ENCODING 279
SWIDTH 617 0
DWIDTH 24 0
BBX 18 30 3 0
BITMAP
01E000
03F000
03F000
03F000
01E000
000000
000000
000000
03F800
0FFC00
1FFE00
3FFF00
7E0F80
780780
780380
F003C0
F003C0
FFFFC0
FFFFC0
FFFFC0
FFFFC0
F00000
F00000
700000
780100
7E0700
3FFF80
1FFF80
0FFF00
03F800
ENDCHAR
STARTCHAR 0118
ENCODING 280
SWIDTH 565 0
DWIDTH 22 0
BBX 15 36 5 -9
BITMAP
FFFE
FFFE
FFFE
FFFE
F000
F000
F000
F000
F000
F000
F000
FFFC
FFFC
FFFC
FFFC
F000
F000
F000
F000
F000
F000
F000
F000
FFFE
FFFE
FFFE
FFFE
00F0
01E0
01C0
03C0
03C0
03C4
03FC
01FE
00F8
ENDCHAR
STARTCHAR 0119
ENCODING 281
SWIDTH 617 0
DWIDTH 24 0
BBX 18 31 3 -9
BITMAP
03F000
0FFC00
1FFE00
3FFF00
7E0F80
780780
780780
F003C0
F003C0
F003C0
FFFFC0
FFFFC0
FFFFC0
FFFFC0
F00000
700000
780000
7C0300
3FFF00
1FFF80
0FFF80
03FE00
003800
007000
007000
00E000
00E000
007200
007F00
007F00
001E00
ENDCHAR
STARTCHAR 011A
ENCODING 282
SWIDTH 565 0
DWIDTH 22 0
BBX 15 35 4 0
BITMAP
180C
1C3C
3F7E
0FF8
07F0
01C0
0000
0000
FFFE
FFFE
FFFE
FFFE
F000
F000
F000
F000
F000
F000
F000
FFFC
FFFC
FFFC
FFFC
F000
F000
F000
F000
F000
F000
F000
F000
FFFE
FFFE
FFFE
FFFE
ENDCHAR
STARTCHAR 011B
ENCODING 283
SWIDTH 617 0
DWIDTH 24 0
BBX 18 31 3 0
BITMAP
060300
070F00
0FDF80
03FE00
01FC00
007000
000000
000000
000000
03F800
0FFC00
1FFE00
3FFF00
7E0F80
780780
780380
F003C0
F003C0
FFFFC0
FFFFC0
FFFFC0
FFFFC0
F00000
F00000
700000
780100
7E0700
3FFF80
1FFF80
0FFF00
03F800
ENDCHAR
STARTCHAR 011E
ENCODING 286
SWIDTH 694 0
DWIDTH 27 0
BBX 21 35 3 0
BITMAP
070380
078780
03FF80
03FF00
00FE00
000000
000000
000000
00FE00
03FFC0
0FFFE0
1FFFF0
1F83E0
3F00E0
7E0040
7C0000
7C0000
F80000
F80000
F80000
F81FF8
F81FF8
F81FF8
F81FF8
F80078
F80078
7C0078
7C0078
7E00F0
3E00F0
3F83E0
1FFFE0
0FFFC0
07FF80
00FE00
ENDCHAR
STARTCHAR 011F
ENCODING 287
SWIDTH 642 0
DWIDTH 25 0
BBX 18 39 3 -9
BITMAP
1C0E00
1E1E00
0FFE00
0FFC00
03F800
000000
000000
000000
07E3C0
0FFBC0
3FFFC0
3FFFC0
7E0FC0
7807C0
7803C0
F003C0
F003C0
F003C0
F003C0
F003C0
F003C0
F003C0
F003C0
F807C0
7C07C0
7E0FC0
3FFFC0
3FFFC0
0FFBC0
07E3C0
0003C0
0003C0
0003C0
1003C0
1E07C0
1FFF80
3FFF80
1FFF00
03FC00
ENDCHAR
STARTCHAR 0122
ENCODING 290
SWIDTH 694 0
DWIDTH 27 0
BBX 21 36 3 -9
BITMAP
00FE00
03FFC0
0FFFE0
1FFFF0
1F83E0
3F00E0
7E0040
7C0000
7C0000
F80000
F80000
F80000
F81FF8
F81FF8
F81FF8
F81FF8
F80078
F80078
7C0078
7C0078
7E00F0
3E00F0
3F83E0
1FFFE0
0FFFC0
07FF80
00FE00
000000
000000
003C00
003C00
007C00
007800
007800
007000
007000
ENDCHAR
STARTCHAR 0123
ENCODING 291
SWIDTH 642 0
DWIDTH 25 0
BBX 18 41 3 -9
BITMAP
007000
007000
007000
00F000
00F000
00F000
01F000
000000
000000
000000
07E3C0
0FFBC0
3FFFC0
3FFFC0
7E0FC0
7807C0
7803C0
F003C0
F003C0
F003C0
F003C0
F003C0
F003C0
F003C0
F003C0
F807C0
7C07C0
7E0FC0
3FFFC0
3FFFC0
0FFBC0
07E3C0
0003C0
0003C0
0003C0
1003C0
1E07C0
1FFF80
3FFF80
1FFF00
03FC00
ENDCHAR
STARTCHAR 012A
ENCODING 298
SWIDTH 334 0
DWIDTH 13 0
BBX 12 33 1 0
BITMAP
FFF0
FFF0
FFF0
0000
0000
0000
0F00
0F00
0F00
0F00
0F00
0F00
0F00
0F00
0F00
0F00
0F00
0F00
0F00
0F00
0F00
0F00
0F00
0F00
0F00
0F00
0F00
0F00
0F00
0F00
0F00
0F00
0F00
ENDCHAR
STARTCHAR 012B
ENCODING 299
SWIDTH 308 0
DWIDTH 12 0
BBX 12 29 0 0
BITMAP
FFF0
FFF0
FFF0
0000
0000
0000
0000
0F00
0F00
0F00
0F00
0F00
0F00
0F00
0F00
0F00
0F00
0F00
0F00
0F00
0F00
0F00
0F00
0F00
0F00
0F00
0F00
0F00
0F00
ENDCHAR
STARTCHAR 012C
ENCODING 300
SWIDTH 334 0
DWIDTH 13 0
BBX 12 34 0 0
BITMAP
E070
F0F0
7FF0
7FE0
1FC0
0000
0000
0780
0780
0780
0780
0780
0780
0780
0780
0780
0780
0780
0780
0780
0780
0780
0780
0780
0780
0780
0780
0780
0780
0780
0780
0780
0780
0780
ENDCHAR
STARTCHAR 012D
ENCODING 301
SWIDTH 308 0
DWIDTH 12 0
BBX 12 30 0 0
BITMAP
E070
F0F0
7FF0
7FE0
1FC0
0000
0000
0000
0F00
0F00
0F00
0F00
0F00
0F00
0F00
0F00
0F00
0F00
0F00
0F00
0F00
0F00
0F00
0F00
0F00
0F00
0F00
0F00
0F00
0F00
ENDCHAR
STARTCHAR 012E
ENCODING 302
SWIDTH 308 0
DWIDTH 12 0
BBX 8 36 2 -9
BITMAP
3C
3C
3C
3C
3C
3C
3C
3C
3C
3C
3C
3C
3C
3C
3C
3C
3C
3C
3C
3C
3C
3C
3C
3C
3C
3C
3C
38
78
70
F0
F0
F2
FF
7F
3C
ENDCHAR
STARTCHAR 012F
ENCODING 303
SWIDTH 308 0
DWIDTH 12 0
BBX 9 39 1 -9
BITMAP
1E00
3F00
3F00
3F00
1E00
0000
0000
0000
3C00
3C00
3C00
3C00
3C00
3C00
3C00
3C00
3C00
3C00
3C00
3C00
3C00
3C00
3C00
3C00
3C00
3C00
3C00
3C00
3C00
3C00
1800
3800
7000
F000
F000
F100
FF00
7F80
1E00
ENDCHAR
STARTCHAR 0130
ENCODING 304
SWIDTH 334 0
DWIDTH 13 0
BBX 6 34 3 0
BITMAP
78
FC
FC
FC
78
00
00
3C
3C
3C
3C
3C
3C
3C
3C
3C
3C
3C
3C
3C
3C
3C
3C
3C
3C
3C
3C
3C
3C
3C
3C
3C
3C
3C
ENDCHAR
STARTCHAR 0131
ENCODING 305
SWIDTH 308 0
DWIDTH 12 0
BBX 4 22 4 0
BITMAP
F0
F0
F0
F0
F0
F0
F0
F0
F0
F0
F0
F0
F0
F0
F0
F0
F0
F0
F0
F0
F0
F0
ENDCHAR
STARTCHAR 0136
ENCODING 310
SWIDTH 617 0
DWIDTH 24 0
BBX 19 36 4 -9
BITMAP
F00FC0
F01F80
F03F80
F03F00
F07E00
F0FC00
F0FC00
F1F800
F3F000
F3F000
F7E000
FFC000
FFC000
FFE000
FFF000
FFF000
FDF800
F8F800
F0FC00
F07E00
F07E00
F03F00
F01F00
F01F80
F00FC0
F00FC0
F007E0
000000
000000
01E000
01E000
03E000
03C000
03C000
038000
038000
ENDCHAR
STARTCHAR 0137
ENCODING 311
SWIDTH 565 0
DWIDTH 22 0
BBX 17 38 4 -9
BITMAP
F00000
F00000
F00000
F00000
F00000
F00000
F00000
F03F80
F03F00
F07E00
F0FC00
F0FC00
F1F800
F3F000
F3F000
F7E000
FFC000
FFE000
FFE000
FFF000
F9F800
F9F800
F0FC00
F0FC00
F07E00
F07E00
F03F00
F03F00
F01F80
000000
000000
03C000
03C000
07C000
078000
078000
070000
070000
ENDCHAR
STARTCHAR 0139
ENCODING 313
SWIDTH 514 0
DWIDTH 20 0
BBX 14 35 4 0
BITMAP
0C00
1F00
3F80
7E00
F800
2000
0000
0000
F000
F000
F000
F000
F000
F000
F000
F000
F000
F000
F000
F000
F000
F000
F000
F000
F000
F000
F000
F000
F000
F000
F000
FFFC
FFFC
FFFC
FFFC
ENDCHAR
STARTCHAR 013A
ENCODING 314
SWIDTH 360 0
DWIDTH 14 0
BBX 9 37 4 0
BITMAP
0C00
1F00
3F80
7E00
F800
2000
0000
0000
F000
F000
F000
F000
F000
F000
F000
F000
F000
F000
F000
F000
F000
F000
F000
F000
F000
F000
F000
F000
F000
F000
F000
F000
F000
FF00
FF00
7F00
3F00
ENDCHAR
STARTCHAR 013B
ENCODING 315
SWIDTH 514 0
DWIDTH 20 0
BBX 14 36 4 -9
BITMAP
F000
F000
F000
F000
F000
F000
F000
F000
F000
F000
F000
F000
F000
F000
F000
F000
F000
F000
F000
F000
F000
F000
F000
FFFC
FFFC
FFFC
FFFC
0000
0000
03C0
03C0
07C0
0780
0780
0700
0700
ENDCHAR
STARTCHAR 013C
ENCODING 316
SWIDTH 360 0
DWIDTH 14 0
BBX 8 38 4 -9
BITMAP
F0
F0
F0
F0
F0
F0
F0
F0
F0
F0
F0
F0
F0
F0
F0
F0
F0
F0
F0
F0
F0
F0
F0
F0
F0
FF
FF
7F
3F
00
00
1E
1E
3E
3C
3C
38
38
ENDCHAR
STARTCHAR 013D
ENCODING 317
SWIDTH 514 0
DWIDTH 20 0
BBX 16 29 4 0
BITMAP
000F
000F
F00F
F00E
F01E
F01C
F01C
F000
F000
F000
F000
F000
F000
F000
F000
F000
F000
F000
F000
F000
F000
F000
F000
F000
F000
FFFC
FFFC
FFFC
FFFC
ENDCHAR
STARTCHAR 013E
ENCODING 318
SWIDTH 360 0
DWIDTH 14 0
BBX 14 29 4 0
BITMAP
F03C
F03C
F03C
F038
F078
F070
F070
F000
F000
F000
F000
F000
F000
F000
F000
F000
F000
F000
F000
F000
F000
F000
F000
F000
F000
FF00
FF00
7F00
3F00
ENDCHAR
STARTCHAR 0141
ENCODING 321
SWIDTH 540 0
DWIDTH 21 0
BBX 17 27 2 0
BITMAP
1E0000
1E0000
1E0000
1E0000
1E0000
1E0800
1E1800
1E7800
1FF800
1FF800
1FF000
1FC000
7F0000
FE0000
FE0000
FE0000
9E0000
1E0000
1E0000
1E0000
1E0000
1E0000
1E0000
1FFF80
1FFF80
1FFF80
1FFF80
ENDCHAR
STARTCHAR 0142
ENCODING 322
SWIDTH 360 0
DWIDTH 14 0
BBX 11 29 1 0
BITMAP
1E00
1E00
1E00
1E00
1E00
1E00
1E00
1E20
1E60
1EE0
1FE0
1FC0
1F80
7F00
FE00
FE00
FE00
9E00
1E00
1E00
1E00
1E00
1E00
1E00
1E00
1FE0
1FE0
0FE0
07E0
ENDCHAR
STARTCHAR 0143
ENCODING 323
SWIDTH 720 0
DWIDTH 28 0
BBX 20 35 4 0
BITMAP
000C00
001F00
003F80
007E00
00F800
002000
000000
000000
F000F0
F800F0
FC00F0
FC00F0
FE00F0
FF00F0
FF00F0
FF80F0
FFC0F0
FFE0F0
F7E0F0
F7F0F0
F3F8F0
F1F8F0
F1FCF0
F0FEF0
F07EF0
F07FF0
F03FF0
F01FF0
F01FF0
F00FF0
F00FF0
F007F0
F003F0
F003F0
F001F0
ENDCHAR
STARTCHAR 0144
ENCODING 324
SWIDTH 642 0
DWIDTH 25 0
BBX 17 31 4 0
BITMAP
003000
007C00
00FE00
01F800
03E000
008000
000000
000000
000000
F1F800
F7FE00
FFFF00
FFFF00
FC1F00
F80F80
F00780
F00780
F00780
F00780
F00780
F00780
F00780
F00780
F00780
F00780
F00780
F00780
F00780
F00780
F00780
F00780
ENDCHAR
STARTCHAR 0145
ENCODING 325
SWIDTH 720 0
DWIDTH 28 0
BBX 20 36 4 -9
BITMAP
F000F0
F800F0
FC00F0
FC00F0
FE00F0
FF00F0
FF00F0
FF80F0
FFC0F0
FFE0F0
F7E0F0
F7F0F0
F3F8F0
F1F8F0
F1FCF0
F0FEF0
F07EF0
F07FF0
F03FF0
F01FF0
F01FF0
F00FF0
F00FF0
F007F0
F003F0
F003F0
F001F0
000000
000000
00F000
00F000
01F000
01E000
01E000
01C000
01C000
ENDCHAR
STARTCHAR 0146
ENCODING 326
SWIDTH 642 0
DWIDTH 25 0
BBX 17 31 4 -9
BITMAP
F1F800
F7FE00
FFFF00
FFFF00
FC1F00
F80F80
F00780
F00780
F00780
F00780
F00780
F00780
F00780
F00780
F00780
F00780
F00780
F00780
F00780
F00780
F00780
F00780
000000
000000
01E000
01E000
03E000
03C000
03C000
038000
038000
ENDCHAR
STARTCHAR 0147
ENCODING 327
SWIDTH 720 0
DWIDTH 28 0
BBX 20 35 4 0
BITMAP
060300
070F00
0FDF80
03FE00
01FC00
007000
000000
000000
F000F0
F800F0
FC00F0
FC00F0
FE00F0
FF00F0
FF00F0
FF80F0
FFC0F0
FFE0F0
F7E0F0
F7F0F0
F3F8F0
F1F8F0
F1FCF0
F0FEF0
F07EF0
F07FF0
F03FF0
F01FF0
F01FF0
F00FF0
F00FF0
F007F0
F003F0
F003F0
F001F0
ENDCHAR
STARTCHAR 0148
ENCODING 328
SWIDTH 642 0
DWIDTH 25 0
BBX 17 31 4 0
BITMAP
0C0600
0E1E00
1FBF00
07FC00
03F800
00E000
000000
000000
000000
F1F800
F7FE00
FFFF00
FFFF00
FC1F00
F80F80
F00780
F00780
F00780
F00780
F00780
F00780
F00780
F00780
F00780
F00780
F00780
F00780
F00780
F00780
F00780
F00780
ENDCHAR
STARTCHAR 014C
ENCODING 332
SWIDTH 745 0
DWIDTH 29 0
BBX 23 34 3 0
BITMAP
03FFC0
03FFC0
03FFC0
000000
000000
000000
000000
00FE00
07FFC0
0FFFE0
1FFFF0
3F83F8
3E00F8
7C007C
7C007C
7C007C
F8003E
F8003E
F8003E
F8003E
F8003E
F8003E
F8003E
F8003E
F8003E
7C007C
7C007C
7C007C
3E00F8
3F83F8
1FFFF0
0FFFE0
07FFC0
00FE00
ENDCHAR
STARTCHAR 014D
ENCODING 333
SWIDTH 642 0
DWIDTH 25 0
BBX 19 29 3 0
BITMAP
0FFF00
0FFF00
0FFF00
000000
000000
000000
000000
03F800
0FFE00
1FFF00
3FFF80
7E0FC0
7807C0
7803C0
F001E0
F001E0
F001E0
F001E0
F001E0
F001E0
F001E0
F001E0
7803C0
7803C0
7E0FC0
3FFF80
1FFF00
0FFE00
03F800
ENDCHAR
STARTCHAR 014E
ENCODING 334
SWIDTH 745 0
DWIDTH 29 0
BBX 23 35 3 0
BITMAP
0381C0
03C3C0
01FFC0
01FF80
007F00
000000
000000
000000
00FE00
07FFC0
0FFFE0
1FFFF0
3F83F8
3E00F8
7C007C
7C007C
7C007C
F8003E
F8003E
F8003E
F8003E
F8003E
F8003E
F8003E
F8003E
F8003E
7C007C
7C007C
7C007C
3E00F8
3F83F8
1FFFF0
0FFFE0
07FFC0
00FE00
ENDCHAR
STARTCHAR 014F
ENCODING 335
SWIDTH 642 0
DWIDTH 25 0
BBX 19 30 3 0
BITMAP
1C0E00
1E1E00
0FFE00
0FFC00
03F800
000000
000000
000000
03F800
0FFE00
1FFF00
3FFF80
7E0FC0
7807C0
7803C0
F001E0
F001E0
F001E0
F001E0
F001E0
F001E0
F001E0
F001E0
7803C0
7803C0
7E0FC0
3FFF80
1FFF00
0FFE00
03F800
ENDCHAR
STARTCHAR 0150
ENCODING 336
SWIDTH 745 0
DWIDTH 29 0
BBX 24 36 3 0
BITMAP
006018
00F83E
01FC7F
03F0FC
07C1F0
010040
000000
000000
000000
00FE00
07FFC0
0FFFE0
1FFFF0
3F83F8
3E00F8
7C007C
7C007C
7C007C
F8003E
F8003E
F8003E
F8003E
F8003E
F8003E
F8003E
F8003E
F8003E
7C007C
7C007C
7C007C
3E00F8
3F83F8
1FFFF0
0FFFE0
07FFC0
00FE00
ENDCHAR
STARTCHAR 0151
ENCODING 337
SWIDTH 642 0
DWIDTH 25 0
BBX 22 31 3 0
BITMAP
018060
03E0F8
07F1FC
0FC3F0
1F07C0
040100
000000
000000
000000
03F800
0FFE00
1FFF00
3FFF80
7E0FC0
7807C0
7803C0
F001E0
F001E0
F001E0
F001E0
F001E0
F001E0
F001E0
F001E0
7803C0
7803C0
7E0FC0
3FFF80
1FFF00
0FFE00
03F800
ENDCHAR
STARTCHAR 0152
ENCODING 338
SWIDTH 1002 0
DWIDTH 39 0
BBX 33 27 3 0
BITMAP
00FC3FFF80
07FF3FFF80
0FFFFFFF80
1FFFFFFF80
3F83FE0000
3E00FE0000
7E007E0000
7C007E0000
7C007E0000
F8003E0000
F8003E0000
F8003FFF00
F8003FFF00
F8003FFF00
F8003FFF00
F8003E0000
F8003E0000
F8003E0000
7C007E0000
7C007E0000
7E00FE0000
3E00FE0000
3F83FE0000
1FFFFFFF80
0FFFFFFF80
07FFBFFF80
00FE3FFF80
ENDCHAR
STARTCHAR 0153
ENCODING 339
SWIDTH 977 0
DWIDTH 38 0
BBX 32 22 3 0
BITMAP
03F807C0
0FFE1FF0
1FFF3FF8
3FFFFFFC
7E0FF83E
7807F01E
7803F01E
F001E00F
F001E00F
F001E00F
F001FFFF
F001FFFF
F001FFFF
F001E000
F001E000
7803E000
7803F008
7E0FF81C
3FFFFFFC
1FFF3FFE
0FFE1FFC
03F80FE0
ENDCHAR
STARTCHAR 0154
ENCODING 340
SWIDTH 642 0
DWIDTH 25 0
BBX 18 36 4 0
BITMAP
006000
00F800
01FC00
03F000
07C000
010000
000000
000000
000000
FFF000
FFFE00
FFFF00
FFFF80
F01F80
F00FC0
F007C0
F007C0
F007C0
F007C0
F00FC0
F01F80
FFFF80
FFFF00
FFFC00
FFFC00
F03E00
F03E00
F03F00
F01F00
F01F00
F01F80
F00F80
F00F80
F007C0
F007C0
F007C0
ENDCHAR
STARTCHAR 0155
ENCODING 341
SWIDTH 437 0
DWIDTH 17 0
BBX 11 31 4 0
BITMAP
0300
07C0
0FE0
1F80
3E00
0800
0000
0000
0000
F1E0
F7E0
FFE0
FFE0
FC00
F800
F000
F000
F000
F000
F000
F000
F000
F000
F000
F000
F000
F000
F000
F000
F000
F000
ENDCHAR
STARTCHAR 0156
ENCODING 342
SWIDTH 642 0
DWIDTH 25 0
BBX 18 36 4 -9
BITMAP
FFF000
FFFE00
FFFF00
FFFF80
F01F80
F00FC0
F007C0
F007C0
F007C0
F007C0
F00FC0
F01F80
FFFF80
FFFF00
FFFC00
FFFC00
F03E00
F03E00
F03F00
F01F00
F01F00
F01F80
F00F80
F00F80
F007C0
F007C0
F007C0
000000
000000
01E000
01E000
03E000
03C000
03C000
038000
038000
ENDCHAR
STARTCHAR 0157
ENCODING 343
SWIDTH 437 0
DWIDTH 17 0
BBX 12 31 3 -9
BITMAP
78F0
7BF0
7FF0
7FF0
7E00
7C00
7800
7800
7800
7800
7800
7800
7800
7800
7800
7800
7800
7800
7800
7800
7800
7800
0000
0000
7800
7800
F800
F000
F000
E000
E000
ENDCHAR
STARTCHAR 0158
ENCODING 344
SWIDTH 642 0
DWIDTH 25 0
BBX 18 36 4 0
BITMAP
180C00
1C3C00
3F7E00
0FF800
07F000
01C000
000000
000000
000000
FFF000
FFFE00
FFFF00
FFFF80
F01F80
F00FC0
F007C0
F007C0
F007C0
F007C0
F00FC0
F01F80
FFFF80
FFFF00
FFFC00
FFFC00
F03E00
F03E00
F03F00
F01F00
F01F00
F01F80
F00F80
F00F80
F007C0
F007C0
F007C0
ENDCHAR
STARTCHAR 0159
ENCODING 345
SWIDTH 437 0
DWIDTH 17 0
BBX 13 31 3 0
BITMAP
6030
70F0
FDF8
3FE0
1FC0
0700
0000
0000
0000
78F0
7BF0
7FF0
7FF0
7E00
7C00
7800
7800
7800
7800
7800
7800
7800
7800
7800
7800
7800
7800
7800
7800
7800
7800
ENDCHAR
STARTCHAR 015A
ENCODING 346
SWIDTH 591 0
DWIDTH 23 0
BBX 18 36 2 0
BITMAP
001800
003E00
007F00
00FC00
01F000
004000
000000
000000
000000
03FC00
0FFF00
1FFF80
3FFF80
7E0780
780100
780000
780000
7C0000
7E0000
3F8000
3FF000
1FFC00
07FF00
01FF80
003F80
000FC0
0007C0
0003C0
0003C0
4003C0
3007C0
7C0F80
7FFF80
FFFF00
3FFE00
07F800
ENDCHAR
STARTCHAR 015B
ENCODING 347
SWIDTH 514 0
DWIDTH 20 0
BBX 16 31 2 0
BITMAP
0030
007C
00FE
01F8
03E0
0080
0000
0000
0000
07F8
1FFE
3FFE
7FFE
780C
7800
7800
7C00
7F00
7FE0
3FF8
0FFC
03FE
007E
001E
000F
401F
781E
FFFE
FFFC
7FF8
0FE0
ENDCHAR
STARTCHAR 015E
ENCODING 350
SWIDTH 565 0
DWIDTH 22 0
BBX 17 37 2 -10
BITMAP
03F800
0FFE00
1FFF00
3FFF00
7E0F00
780200
780000
780000
7C0000
7E0000
3F8000
3FE000
1FF800
0FFE00
03FF00
007F00
001F80
000F80
000780
000780
400780
600F80
781F00
FFFF00
FFFE00
3FFC00
0FF000
018000
018000
01F000
03F800
001C00
001C00
021C00
03FC00
03F800
01F000
ENDCHAR
STARTCHAR 015F
ENCODING 351
SWIDTH 514 0
DWIDTH 20 0
BBX 16 31 2 -9
BITMAP
07F8
1FFF
3FFF
3FFE
7C06
7800
7800
7C00
7F00
3FE0
1FF8
0FFC
03FE
007F
001F
000F
600F
781F
FFFE
FFFE
3FFC
0FF0
0180
0180
03F0
01F0
0038
0038
0478
07F0
03E0
ENDCHAR
STARTCHAR 0160
ENCODING 352
SWIDTH 591 0
DWIDTH 23 0
BBX 18 36 2 0
BITMAP
0C0600
0E1E00
1FBF00
07FC00
03F800
00E000
000000
000000
000000
03FC00
0FFF00
1FFF80
3FFF80
7E0780
780100
780000
780000
7C0000
7E0000
3F8000
3FF000
1FFC00
07FF00
01FF80
003F80
000FC0
0007C0
0003C0
0003C0
4003C0
3007C0
7C0F80
7FFF80
FFFF00
3FFE00
07F800
ENDCHAR
STARTCHAR 0161
ENCODING 353
SWIDTH 514 0
DWIDTH 20 0
BBX 16 31 2 0
BITMAP
0C06
0E1E
1FBF
07FC
03F8
00E0
0000
0000
0000
07F8
1FFE
3FFE
7FFE
780C
7800
7800
7C00
7F00
7FE0
3FF8
0FFC
03FE
007E
001E
000F
401F
781E
FFFE
FFFC
7FF8
0FE0
ENDCHAR
STARTCHAR 0162
ENCODING 354
SWIDTH 540 0
DWIDTH 21 0
BBX 16 36 2 -9
BITMAP
FFFF
FFFF
FFFF
FFFF
03C0
03C0
03C0
03C0
03C0
03C0
03C0
03C0
03C0
03C0
03C0
03C0
03C0
03C0
03C0
03C0
03C0
03C0
03C0
03C0
03C0
03C0
03C0
0000
0000
01E0
01E0
03E0
03C0
03C0
0380
0380
ENDCHAR
STARTCHAR 0163
ENCODING 355
SWIDTH 411 0
DWIDTH 16 0
BBX 11 37 2 -9
BITMAP
1E00
1E00
1E00
1E00
1E00
1E00
FFE0
FFE0
FFE0
FFE0
1E00
1E00
1E00
1E00
1E00
1E00
1E00
1E00
1E00
1E00
1E00
1E00
1E00
1E00
1FE0
1FE0
0FE0
07E0
0000
0000
03C0
03C0
07C0
0780
0780
0700
0700
ENDCHAR
STARTCHAR 0164
ENCODING 356
SWIDTH 540 0
DWIDTH 21 0
BBX 16 36 2 0
BITMAP
180C
1C3C
3F7E
0FF8
07F0
01C0
0000
0000
0000
FFFF
FFFF
FFFF
FFFF
03C0
03C0
03C0
03C0
03C0
03C0
03C0
03C0
03C0
03C0
03C0
03C0
03C0
03C0
03C0
03C0
03C0
03C0
03C0
03C0
03C0
03C0
03C0
ENDCHAR
STARTCHAR 0165
ENCODING 357
SWIDTH 411 0
DWIDTH 16 0
BBX 17 29 2 0
BITMAP
000780
1E0780
1E0780
1E0700
1E0F00
1E0E00
1E0E00
FFE000
FFE000
FFE000
FFE000
1E0000
1E0000
1E0000
1E0000
1E0000
1E0000
1E0000
1E0000
1E0000
1E0000
1E0000
1E0000
1E0000
1E0000
1FE000
1FE000
0FE000
07E000
ENDCHAR
STARTCHAR 016A
ENCODING 362
SWIDTH 694 0
DWIDTH 27 0
BBX 19 33 4 0
BITMAP
1FFE00
1FFE00
1FFE00
000000
000000
000000
F001E0
F001E0
F001E0
F001E0
F001E0
F001E0
F001E0
F001E0
F001E0
F001E0
F001E0
F001E0
F001E0
F001E0
F001E0
F001E0
F001E0
F001E0
F001E0
F001E0
F803E0
7803C0
7E0FC0
3FFF80
3FFF80
1FFE00
03F800
ENDCHAR
STARTCHAR 016B
ENCODING 363
SWIDTH 642 0
DWIDTH 25 0
BBX 17 29 4 0
BITMAP
3FFC00
3FFC00
3FFC00
000000
000000
000000
000000
F00780
F00780
F00780
F00780
F00780
F00780
F00780
F00780
F00780
F00780
F00780
F00780
F00780
F00780
F00780
F00780
F80F80
FC1F80
7FFF80
7FFF80
3FF780
0FC780
ENDCHAR
STARTCHAR 016C
ENCODING 364
SWIDTH 694 0
DWIDTH 27 0
BBX 19 34 4 0
BITMAP
0E0700
0F0F00
07FF00
07FE00
01FC00
000000
000000
F001E0
F001E0
F001E0
F001E0
F001E0
F001E0
F001E0
F001E0
F001E0
F001E0
F001E0
F001E0
F001E0
F001E0
F001E0
F001E0
F001E0
F001E0
F001E0
F001E0
F803E0
7803C0
7E0FC0
3FFF80
3FFF80
1FFE00
03F800
ENDCHAR
STARTCHAR 016D
ENCODING 365
SWIDTH 642 0
DWIDTH 25 0
BBX 17 30 4 0
BITMAP
381C00
3C3C00
1FFC00
1FF800
07F000
000000
000000
000000
F00780
F00780
F00780
F00780
F00780
F00780
F00780
F00780
F00780
F00780
F00780
F00780
F00780
F00780
F00780
F00780
F80F80
FC1F80
7FFF80
7FFF80
3FF780
0FC780
ENDCHAR
STARTCHAR 016E
ENCODING 366
SWIDTH 694 0
DWIDTH 27 0
BBX 19 36 4 0
BITMAP
00E000
01F000
03B800
031800
031800
03B800
01F000
00E000
000000
F001E0
F001E0
F001E0
F001E0
F001E0
F001E0
F001E0
F001E0
F001E0
F001E0
F001E0
F001E0
F001E0
F001E0
F001E0
F001E0
F001E0
F001E0
F001E0
F001E0
F803E0
7803C0
7E0FC0
3FFF80
3FFF80
1FFE00
03F800
ENDCHAR
STARTCHAR 016F
ENCODING 367
SWIDTH 642 0
DWIDTH 25 0
BBX 17 32 4 0
BITMAP
01C000
03E000
077000
063000
063000
077000
03E000
01C000
000000
000000
F00780
F00780
F00780
F00780
F00780
F00780
F00780
F00780
F00780
F00780
F00780
F00780
F00780
F00780
F00780
F00780
F80F80
FC1F80
7FFF80
7FFF80
3FF780
0FC780
ENDCHAR
STARTCHAR 0170
ENCODING 368
SWIDTH 694 0
DWIDTH 27 0
BBX 22 36 4 0
BITMAP
018060
03E0F8
07F1FC
0FC3F0
1F07C0
040100
000000
000000
000000
F001E0
F001E0
F001E0
F001E0
F001E0
F001E0
F001E0
F001E0
F001E0
F001E0
F001E0
F001E0
F001E0
F001E0
F001E0
F001E0
F001E0
F001E0
F001E0
F001E0
F803E0
7803C0
7E0FC0
3FFF80
3FFF80
1FFE00
03F800
ENDCHAR
STARTCHAR 0171
ENCODING 369
SWIDTH 642 0
DWIDTH 25 0
BBX 21 31 4 0
BITMAP
0300C0
07C1F0
0FE3F8
1F87E0
3E0F80
080200
000000
000000
000000
F00780
F00780
F00780
F00780
F00780
F00780
F00780
F00780
F00780
F00780
F00780
F00780
F00780
F00780
F00780
F00780
F80F80
FC1F80
7FFF80
7FFF80
3FF780
0FC780
ENDCHAR
STARTCHAR 0172
ENCODING 370
SWIDTH 694 0
DWIDTH 27 0
BBX 19 36 4 -9
BITMAP
F001E0
F001E0
F001E0
F001E0
F001E0
F001E0
F001E0
F001E0
F001E0
F001E0
F001E0
F001E0
F001E0
F001E0
F001E0
F001E0
F001E0
F001E0
F001E0
F001E0
F803E0
7803C0
7E0FC0
3FFFC0
3FFF80
1FFF00
03FE00
003C00
003800
007000
007000
007000
007100
007F00
003F80
001E00
ENDCHAR
STARTCHAR 0173
ENCODING 371
SWIDTH 617 0
DWIDTH 24 0
BBX 18 31 4 -9
BITMAP
F00F00
F00F00
F00F00
F00F00
F00F00
F00F00
F00F00
F00F00
F00F00
F00F00
F00F00
F00F00
F00F00
F00F00
F00F00
F00F00
F81F00
F83F00
7FFF00
7FFF00
3FEF00
1FC700
000E00
001C00
003800
007800
007800
007880
007F80
003FC0
000F00
ENDCHAR
STARTCHAR 0178
ENCODING 376
SWIDTH 591 0
DWIDTH 23 0
BBX 20 34 2 0
BITMAP
0E0700
1F0F80
1F0F80
1F0F80
0E0700
000000
000000
F801F0
7C03E0
7C03E0
7E07C0
3E07C0
3E0780
1F0F80
1F0F00
0F9F00
0F9E00
079E00
07FC00
03FC00
03F800
01F800
01F800
00F000
00F000
00F000
00F000
00F000
00F000
00F000
00F000
00F000
00F000
00F000
ENDCHAR
STARTCHAR 0179
ENCODING 377
SWIDTH 540 0
DWIDTH 21 0
BBX 17 35 2 0
BITMAP
003000
007C00
00FE00
01F800
03E000
008000
000000
000000
7FFF80
7FFF80
7FFF80
7FFF80
001F00
003F00
003E00
007E00
00FC00
00F800
01F800
01F000
03F000
07E000
07E000
0FC000
0F8000
1F8000
1F0000
3F0000
7E0000
7C0000
FC0000
FFFF80
FFFF80
FFFF80
FFFF80
ENDCHAR
STARTCHAR 017A
ENCODING 378
SWIDTH 488 0
DWIDTH 19 0
BBX 15 31 2 0
BITMAP
0060
00F8
01FC
03F0
07C0
0100
0000
0000
0000
FFFE
FFFE
FFFE
FFFE
007C
00FC
01F8
01F8
03F0
03E0
07E0
0FC0
0F80
1F80
3F00
3F00
7E00
7C00
FFFE
FFFE
FFFE
FFFE
ENDCHAR
STARTCHAR 017B
ENCODING 379
SWIDTH 540 0
DWIDTH 21 0
BBX 17 34 2 0
BITMAP
01E000
03F000
03F000
03F000
01E000
000000
000000
7FFF80
7FFF80
7FFF80
7FFF80
001F00
003F00
003E00
007E00
00FC00
00F800
01F800
01F000
03F000
07E000
07E000
0FC000
0F8000
1F8000
1F0000
3F0000
7E0000
7C0000
FC0000
FFFF80
FFFF80
FFFF80
FFFF80
ENDCHAR
STARTCHAR 017C
ENCODING 380
SWIDTH 488 0
DWIDTH 19 0
BBX 15 30 2 0
BITMAP
03C0
07E0
07E0
07E0
03C0
0000
0000
0000
FFFE
FFFE
FFFE
FFFE
007C
00FC
01F8
01F8
03F0
03E0
07E0
0FC0
0F80
1F80
3F00
3F00
7E00
7C00
FFFE
FFFE
FFFE
FFFE
ENDCHAR
STARTCHAR 017D
ENCODING 381
SWIDTH 540 0
DWIDTH 21 0
BBX 17 36 2 0
BITMAP
0C0600
0E1E00
1FBF00
07FC00
03F800
00E000
000000
000000
000000
7FFF80
7FFF80
7FFF80
7FFF80
001F00
003F00
003E00
007E00
00FC00
00F800
01F800
01F000
03F000
07E000
07E000
0FC000
0F8000
1F8000
1F0000
3F0000
7E0000
7C0000
FC0000
FFFF80
FFFF80
FFFF80
FFFF80
ENDCHAR
STARTCHAR 017E
ENCODING 382
SWIDTH 488 0
DWIDTH 19 0
BBX 15 31 2 0
BITMAP
180C
1C3C
3F7E
0FF8
07F0
01C0
0000
0000
0000
FFFE
FFFE
FFFE
FFFE
007C
00FC
01F8
01F8
03F0
03E0
07E0
0FC0
0F80
1F80
3F00
3F00
7E00
7C00
FFFE
FFFE
FFFE
FFFE
ENDCHAR
STARTCHAR 0192
ENCODING 402
SWIDTH 565 0
DWIDTH 22 0
BBX 19 37 2 -8
BITMAP
0007E0
001FE0
003FC0
003FC0
007E00
007C00
007C00
007C00
007800
007800
00F800
07FF80
07FF00
07FF00
07FF00
01F000
01F000
01F000
01F000
01E000
03E000
03E000
03E000
03E000
03C000
07C000
07C000
07C000
07C000
078000
0F8000
0F8000
1F8000
FF0000
FF0000
FE0000
F80000
ENDCHAR
STARTCHAR 0218
ENCODING 536
SWIDTH 591 0
DWIDTH 23 0
BBX 18 36 2 -9
BITMAP
03FC00
0FFF00
1FFF80
3FFF80
7E0780
780100
780000
780000
7C0000
7E0000
3F8000
3FF000
1FFC00
07FF00
01FF80
003F80
000FC0
0007C0
0003C0
0003C0
4003C0
3007C0
7C0F80
7FFF80
FFFF00
3FFE00
07F800
000000
000000
01E000
01E000
03E000
03C000
03C000
038000
038000
ENDCHAR
STARTCHAR 0219
ENCODING 537
SWIDTH 514 0
DWIDTH 20 0
BBX 16 31 2 -9
BITMAP
07F8
1FFE
3FFE
7FFE
780C
7800
7800
7C00
7F00
7FE0
3FF8
0FFC
03FE
007E
001E
000F
401F
781E
FFFE
FFFC
7FF8
0FE0
0000
0000
03C0
03C0
07C0
0780
0780
0700
0700
ENDCHAR
STARTCHAR 021A
ENCODING 538
SWIDTH 540 0
DWIDTH 21 0
BBX 16 36 2 -9
BITMAP
FFFF
FFFF
FFFF
FFFF
03C0
03C0
03C0
03C0
03C0
03C0
03C0
03C0
03C0
03C0
03C0
03C0
03C0
03C0
03C0
03C0
03C0
03C0
03C0
03C0
03C0
03C0
03C0
0000
0000
01E0
01E0
03E0
03C0
03C0
0380
0380
ENDCHAR
STARTCHAR 021B
ENCODING 539
SWIDTH 411 0
DWIDTH 16 0
BBX 11 37 2 -9
BITMAP
1E00
1E00
1E00
1E00
1E00
1E00
FFE0
FFE0
FFE0
FFE0
1E00
1E00
1E00
1E00
1E00
1E00
1E00
1E00
1E00
1E00
1E00
1E00
1E00
1E00
1FE0
1FE0
0FE0
07E0
0000
0000
03C0
03C0
07C0
0780
0780
0700
0700
ENDCHAR
STARTCHAR 02C6
ENCODING 710
SWIDTH 360 0
DWIDTH 14 0
BBX 13 7 0 24
BITMAP
0200
0F80
3FE0
7FF0
FDF8
7070
4020
ENDCHAR
STARTCHAR 02C7
ENCODING 711
SWIDTH 360 0
DWIDTH 14 0
BBX 13 6 1 25
BITMAP
6030
70F0
FDF8
3FE0
1FC0
0700
ENDCHAR
STARTCHAR 02C9
ENCODING 713
SWIDTH 462 0
DWIDTH 18 0
BBX 12 3 3 26
BITMAP
FFF0
FFF0
FFF0
ENDCHAR
STARTCHAR 02D8
ENCODING 728
SWIDTH 411 0
DWIDTH 16 0
BBX 12 5 2 25
BITMAP
E070
F0F0
7FF0
7FE0
1FC0
ENDCHAR
STARTCHAR 02D9
ENCODING 729
SWIDTH 205 0
DWIDTH 8 0
BBX 6 5 1 25
BITMAP
78
FC
FC
FC
78
ENDCHAR
STARTCHAR 02DA
ENCODING 730
SWIDTH 282 0
DWIDTH 11 0
BBX 7 8 2 24
BITMAP
38
7C
EE
C6
C6
EE
7C
38
ENDCHAR
STARTCHAR 02DB
ENCODING 731
SWIDTH 334 0
DWIDTH 13 0
BBX 9 9 3 -9
BITMAP
1E00
3800
7000
F000
F000
F100
FF00
7F80
3E00
ENDCHAR
STARTCHAR 02DC
ENCODING 732
SWIDTH 385 0
DWIDTH 15 0
BBX 14 5 1 25
BITMAP
3C10
7FFC
FFF8
E3F0
4000
ENDCHAR
STARTCHAR 02DD
ENCODING 733
SWIDTH 565 0
DWIDTH 22 0
BBX 19 6 2 25
BITMAP
0C0300
1F07C0
3F8FE0
7E1F80
F83E00
200800
ENDCHAR
STARTCHAR 03BC
ENCODING 956
SWIDTH 642 0
DWIDTH 25 0
BBX 17 31 4 -9
BITMAP
F00780
F00780
F00780
F00780
F00780
F00780
F00780
F00780
F00780
F00780
F00780
F00780
F00780
F00780
F00780
F00780
F00780
F80F80
FC1F80
FFFF80
FFFF80
FFF780
F7C000
F00000
F00000
F00000
F00000
F00000
F00000
F00000
F00000
ENDCHAR
STARTCHAR 2013
ENCODING 8211
SWIDTH 591 0
DWIDTH 23 0
BBX 17 4 3 12
BITMAP
FFFF80
FFFF80
FFFF80
FFFF80
ENDCHAR
STARTCHAR 2014
ENCODING 8212
SWIDTH 977 0
DWIDTH 38 0
BBX 33 4 3 10
BITMAP
FFFFFFFF80
FFFFFFFF80
FFFFFFFF80
FFFFFFFF80
ENDCHAR
STARTCHAR 2018
ENCODING 8216
SWIDTH 282 0
DWIDTH 11 0
BBX 6 9 2 19
BITMAP
1C
3C
3C
3C
7C
78
78
F8
F8
ENDCHAR
STARTCHAR 2019
ENCODING 8217
SWIDTH 282 0
DWIDTH 11 0
BBX 7 9 3 19
BITMAP
3E
7C
7C
7C
78
78
70
F0
F0
ENDCHAR
STARTCHAR 201A
ENCODING 8218
SWIDTH 282 0
DWIDTH 11 0
BBX 6 9 2 -6
BITMAP
7C
78
78
F8
F0
F0
F0
E0
E0
ENDCHAR
STARTCHAR 201C
ENCODING 8220
SWIDTH 514 0
DWIDTH 20 0
BBX 14 9 2 19
BITMAP
1C1C
3C1C
3C3C
3C3C
7C3C
787C
7878
F8F8
F8F8
ENDCHAR
STARTCHAR 201D
ENCODING 8221
SWIDTH 514 0
DWIDTH 20 0
BBX 15 9 3 19
BITMAP
3E3E
7C3E
7C7C
7C7C
7878
7878
7078
F070
F0F0
ENDCHAR
STARTCHAR 201E
ENCODING 8222
SWIDTH 514 0
DWIDTH 20 0
BBX 14 9 2 -6
BITMAP
7C7C
7878
7878
7878
F0F0
F0F0
F0F0
E0E0
E0E0
ENDCHAR
STARTCHAR 2020
ENCODING 8224
SWIDTH 385 0
DWIDTH 15 0
BBX 10 20 3 8
BITMAP
1E00
1E00
1E00
1E00
1E00
FFC0
FFC0
FFC0
FFC0
1E00
1E00
1E00
1E00
1E00
1E00
1E00
1E00
1E00
1E00
1E00
ENDCHAR
STARTCHAR 2021
ENCODING 8225
SWIDTH 385 0
DWIDTH 15 0
BBX 10 21 3 7
BITMAP
1E00
1E00
1E00
1E00
1E00
FFC0
FFC0
FFC0
FFC0
1E00
1E00
1E00
1E00
FFC0
FFC0
FFC0
FFC0
1E00
1E00
1E00
1E00
ENDCHAR
STARTCHAR 2022
ENCODING 8226
SWIDTH 617 0
DWIDTH 24 0
BBX 13 13 5 7
BITMAP
0F80
3FE0
7FF0
7FF0
FFF8
FFF8
FFF8
FFF8
FFF8
7FF0
7FF0
3FE0
0F80
ENDCHAR
STARTCHAR 2026
ENCODING 8230
SWIDTH 797 0
DWIDTH 31 0
BBX 26 5 3 0
BITMAP
781E0780
FC3F0FC0
FC3F0FC0
FC3F0FC0
781E0780
ENDCHAR
STARTCHAR 2030
ENCODING 8240
SWIDTH 1285 0
DWIDTH 50 0
BBX 45 27 2 0
BITMAP
0F8007000000
3FE00F000000
7FF01E000000
78F01E000000
F0783C000000
F0783C000000
F07878000000
F07870000000
F078F0000000
F079E0000000
F079E0000000
78F3C0000000
7FF3C3E007C0
3FE78FF81FE0
1FC71FFC3FF0
000F1E3C3CF0
001E3C1E7878
001E3C1E7878
003C3C1E7878
003C3C1E7878
00783C1E7878
00783C1E7878
00F03C1E7878
01E01E3C3CF0
01E01FFC3FF0
03C00FF81FE0
03C003E00FC0
ENDCHAR
STARTCHAR 2039
ENCODING 8249
SWIDTH 334 0
DWIDTH 13 0
BBX 8 16 2 4
BITMAP
04
0F
1F
1E
3E
3C
7C
78
F8
7C
3C
3E
1E
1F
0F
04
ENDCHAR
STARTCHAR 203A
ENCODING 8250
SWIDTH 334 0
DWIDTH 13 0
BBX 8 16 3 4
BITMAP
20
F0
F8
78
7C
3C
3E
1E
1F
3E
3C
7C
78
F8
F0
20
ENDCHAR
STARTCHAR 2044
ENCODING 8260
SWIDTH 180 0
DWIDTH 7 0
BBX 24 32 -8 -2
BITMAP
000007
00000E
00001E
00001C
000038
000078
000070
0000E0
0001E0
0001C0
000380
000780
000700
000E00
001E00
001C00
003800
007800
007000
00E000
01E000
01C000
038000
078000
070000
0E0000
1E0000
1C0000
380000
780000
700000
E00000
ENDCHAR
STARTCHAR 2070
ENCODING 8304
SWIDTH 462 0
DWIDTH 18 0
BBX 12 17 3 13
BITMAP
0F00
3FC0
7FE0
79E0
F0F0
F0F0
F0F0
F0F0
F0F0
F0F0
F0F0
F0F0
F0F0
79E0
7FE0
3FC0
0F00
ENDCHAR
STARTCHAR 2074
ENCODING 8308
SWIDTH 411 0
DWIDTH 16 0
BBX 12 17 1 13
BITMAP
03E0
03E0
07E0
0FE0
0FE0
1FE0
1DE0
39E0
79E0
71E0
F1E0
7FF0
7FF0
01E0
01E0
01E0
01E0
ENDCHAR
STARTCHAR 2075
ENCODING 8309
SWIDTH 411 0
DWIDTH 16 0
BBX 11 17 2 13
BITMAP
7FC0
7FC0
7FC0
7000
7000
7000
7F00
FFC0
FFC0
23E0
01E0
01E0
01E0
43E0
FFC0
FF80
3F00
ENDCHAR
STARTCHAR 2076
ENCODING 8310
SWIDTH 437 0
DWIDTH 17 0
BBX 13 17 2 13
BITMAP
0FC0
1FE0
3FE0
7C40
7800
F000
F7C0
FFF0
FFF0
F8F8
F078
F078
F078
78F8
7FF0
3FE0
0F80
ENDCHAR
STARTCHAR 2077
ENCODING 8311
SWIDTH 385 0
DWIDTH 15 0
BBX 11 17 1 13
BITMAP
FFE0
FFE0
FFE0
01E0
03C0
0380
0780
0700
0F00
0F00
0E00
1E00
1E00
1E00
1E00
1E00
1E00
ENDCHAR
STARTCHAR 2078
ENCODING 8312
SWIDTH 437 0
DWIDTH 17 0
BBX 12 17 2 13
BITMAP
1F80
7FE0
FFE0
F9F0
F0F0
F0F0
79F0
7FE0
3FC0
7FE0
F8F0
F0F0
F0F0
F9F0
7FE0
7FE0
1F80
ENDCHAR
STARTCHAR 2079
ENCODING 8313
SWIDTH 437 0
DWIDTH 17 0
BBX 12 17 2 13
BITMAP
1F80
3FC0
7FE0
F9E0
F0F0
F0F0
F0F0
F9F0
7FF0
7FF0
3EF0
00F0
01E0
41E0
7FC0
7F80
3F00
ENDCHAR
STARTCHAR 2080
ENCODING 8320
SWIDTH 462 0
DWIDTH 18 0
BBX 12 17 3 -2
BITMAP
0F00
3FC0
7FE0
79E0
F0E0
F0F0
F0F0
F0F0
F0F0
F0F0
F0F0
F0F0
F0F0
79E0
7FE0
3FC0
0F00
ENDCHAR
STARTCHAR 2081
ENCODING 8321
SWIDTH 334 0
DWIDTH 13 0
BBX 8 17 1 -2
BITMAP
0F
1F
3F
FF
FF
6F
0F
0F
0F
0F
0F
0F
0F
0F
0F
0F
0F
ENDCHAR
STARTCHAR 2082
ENCODING 8322
SWIDTH 411 0
DWIDTH 16 0
BBX 11 17 2 -2
BITMAP
1F00
7FC0
FFC0
63E0
41E0
01E0
01E0
03C0
07C0
0780
0F00
1E00
3C00
7800
FFE0
FFE0
FFE0
ENDCHAR
STARTCHAR 2083
ENCODING 8323
SWIDTH 411 0
DWIDTH 16 0
BBX 12 17 1 -2
BITMAP
0F80
3FE0
7FF0
31F0
00F0
00F0
01F0
0FE0
0FC0
0FE0
01F0
00F0
00F0
61F0
7FE0
FFC0
1F80
ENDCHAR
STARTCHAR 2084
ENCODING 8324
SWIDTH 411 0
DWIDTH 16 0
BBX 12 16 1 -1
BITMAP
03E0
03E0
07E0
0FE0
0FE0
1DE0
19E0
39E0
71E0
71E0
FFF0
7FF0
7FF0
01E0
01E0
01E0
ENDCHAR
STARTCHAR 2085
ENCODING 8325
SWIDTH 411 0
DWIDTH 16 0
BBX 11 17 2 -2
BITMAP
7FC0
7FC0
7FC0
7000
7000
7F00
FFC0
FFC0
23E0
01E0
01E0
01E0
01E0
43E0
FFC0
FF80
3F00
ENDCHAR
STARTCHAR 2086
ENCODING 8326
SWIDTH 437 0
DWIDTH 17 0
BBX 13 17 2 -2
BITMAP
07C0
1FE0
3FE0
7840
7000
F7C0
FFF0
FFF0
F8F8
F078
F078
F078
F078
78F0
7FF0
3FE0
0F80
ENDCHAR
STARTCHAR 2087
ENCODING 8327
SWIDTH 385 0
DWIDTH 15 0
BBX 11 17 1 -2
BITMAP
FFE0
FFE0
FFE0
01E0
03C0
0380
0780
0700
0F00
0F00
0E00
1E00
1E00
1E00
1E00
1E00
1E00
ENDCHAR
STARTCHAR 2088
ENCODING 8328
SWIDTH 437 0
DWIDTH 17 0
BBX 12 17 2 -2
BITMAP
1F80
7FE0
FFF0
F0F0
F0F0
F0F0
7FE0
3FC0
7FE0
F9F0
F0F0
F0F0
F0F0
F9F0
7FE0
7FE0
1F80
ENDCHAR
STARTCHAR 2089
ENCODING 8329
SWIDTH 437 0
DWIDTH 17 0
BBX 12 17 2 -2
BITMAP
1F80
3FC0
7FE0
F9E0
F0F0
F0F0
F0F0
F9F0
7FF0
7FF0
3EF0
00F0
01E0
41E0
7FC0
7F80
3F00
ENDCHAR
STARTCHAR 20AC
ENCODING 8364
SWIDTH 745 0
DWIDTH 29 0
BBX 24 27 2 0
BITMAP
001FC0
00FFF8
01FFFC
03FFFF
07F07F
0FC01E
0F8004
0F8000
1F0000
7FFFE0
7FFFE0
FFFFC0
1F0000
1F0000
1F0000
7FFFC0
FFFF80
FFFF80
1F0000
0F8000
0F8004
0FC01E
07F07F
03FFFF
01FFFE
00FFF8
001FC0
ENDCHAR
STARTCHAR 2122
ENCODING 8482
SWIDTH 694 0
DWIDTH 27 0
BBX 21 10 3 18
BITMAP
FF9838
FF9C38
FF9E78
1C1EF8
1C1FF8
1C1BD8
1C1998
1C1998
1C1918
1C1818
ENDCHAR
STARTCHAR 2153
ENCODING 8531
SWIDTH 1028 0
DWIDTH 40 0
BBX 34 32 3 -2
BITMAP
0F00003800
1F00007000
3F00007000
FF0000E000
FF0001C000
6F0001C000
0F00038000
0F00070000
0F000F0000
0F000E0000
0F001C0000
0F003C0000
0F00380000
0F00700000
0F00F00000
0F00E03E00
0F01C0FF80
0003C1FFC0
000380C7C0
00070003C0
000F0003C0
000E0007C0
001C003F80
003C003F00
0038003F80
00700007C0
00F00003C0
00E00003C0
01C00187C0
03C001FF80
038003FF00
0700007E00
ENDCHAR
STARTCHAR 2154
ENCODING 8532
SWIDTH 1028 0
DWIDTH 40 0
BBX 34 32 3 -2
BITMAP
1F00003C00
7FC0007800
FFC0007000
63E000E000
41E001E000
01E001C000
01E0038000
03C0078000
07C0070000
07800E0000
0F001E0000
1E001C0000
3C00380000
7800780000
FFE0700000
FFE0E03E00
FFE1E0FF80
0001C1FFC0
000380C7C0
00078003C0
00070003C0
000E0007C0
001E003F80
001C003F00
0038003F80
00780007C0
00700003C0
00E00003C0
01E00187C0
01C001FF80
038003FF00
0780007E00
ENDCHAR
STARTCHAR 2155
ENCODING 8533
SWIDTH 1028 0
DWIDTH 40 0
BBX 33 32 3 -2
BITMAP
0F00007800
1F0000F000
3F0000E000
FF0001C000
FF0003C000
6F00038000
0F00070000
0F000F0000
0F000E0000
0F001C0000
0F003C0000
0F00380000
0F00700000
0F00F00000
0F00E00000
0F01C1FF00
0F03C1FF00
000381FF00
000701C000
000F01C000
000E01FC00
001C03FF00
003C03FF00
0038008F80
0070000780
00F0000780
00E0000780
01C0000780
03C0010F80
038003FF00
070003FE00
0F0000FC00
ENDCHAR
STARTCHAR 2157
ENCODING 8535
SWIDTH 1028 0
DWIDTH 40 0
BBX 34 32 3 -2
BITMAP
3F00003800
FF80007000
FFC000F000
43C000E000
01C001C000
01C003C000
03C0038000
1F80070000
1F800F0000
1FC00E0000
01C01C0000
01E03C0000
01E0380000
43C0700000
FFC0F00000
FF80E0FF80
3F01C0FF80
0003C0FF80
000380E000
000700E000
000F00FE00
000E01FF80
001C01FF80
003C0047C0
00380003C0
00700003C0
00F00003C0
00E00003C0
01C00087C0
03C001FF80
038001FF00
0700007E00
ENDCHAR
STARTCHAR 2212
ENCODING 8722
SWIDTH 591 0
DWIDTH 23 0
BBX 15 4 4 9
BITMAP
FFFE
FFFE
FFFE
FFFE
ENDCHAR
STARTCHAR 2215
ENCODING 8725
SWIDTH 180 0
DWIDTH 7 0
BBX 24 32 -8 -2
BITMAP
000007
00000E
00001E
00001C
000038
000078
000070
0000E0
0001E0
0001C0
000380
000780
000700
000E00
001E00
001C00
003800
007800
007000
00E000
01E000
01C000
038000
078000
070000
0E0000
1E0000
1C0000
380000
780000
700000
E00000
ENDCHAR
STARTCHAR 2219
ENCODING 8729
SWIDTH 308 0
DWIDTH 12 0
BBX 6 6 3 8
BITMAP
78
FC
FC
FC
FC
78
ENDCHAR
STARTCHAR 2264
ENCODING 8804
SWIDTH 745 0
DWIDTH 29 0
BBX 22 26 4 0
BITMAP
00000C
00007C
0001FC
000FFC
007FF0
01FF80
0FFC00
7FF000
FF8000
FC0000
F80000
FF0000
7FE000
1FFC00
03FF00
007FE0
001FFC
0003FC
00007C
00001C
000000
000000
000000
FFFFF8
FFFFF8
FFFFF8
ENDCHAR
STARTCHAR 2265
ENCODING 8805
SWIDTH 745 0
DWIDTH 29 0
BBX 22 26 3 0
BITMAP
800000
F00000
FE0000
FF8000
3FF000
0FFE00
01FF80
003FF0
0007FC
0001FC
0000FC
0007FC
001FF8
00FFC0
07FE00
3FF800
FFC000
FE0000
F80000
C00000
000000
000000
000000
FFFFFC
FFFFFC
FFFFFC
ENDCHAR
STARTCHAR F6C1
ENCODING 63169
SWIDTH 565 0
DWIDTH 22 0
BBX 17 37 2 -10
BITMAP
03F800
0FFE00
1FFF00
3FFF00
7E0F00
780200
780000
780000
7C0000
7E0000
3F8000
3FE000
1FF800
0FFE00
03FF00
007F00
001F80
000F80
000780
000780
400780
600F80
781F00
FFFF00
FFFE00
3FFC00
0FF000
018000
018000
01F000
03F800
001C00
001C00
021C00
03FC00
03F800
01F000
ENDCHAR
STARTCHAR F6C2
ENCODING 63170
SWIDTH 514 0
DWIDTH 20 0
BBX 16 31 2 -9
BITMAP
07F8
1FFF
3FFF
3FFE
7C06
7800
7800
7C00
7F00
3FE0
1FF8
0FFC
03FE
007F
001F
000F
600F
781F
FFFE
FFFE
3FFC
0FF0
0180
0180
03F0
01F0
0038
0038
0478
07F0
03E0
ENDCHAR
STARTCHAR F6C3
ENCODING 63171
SWIDTH 385 0
DWIDTH 15 0
BBX 5 7 5 -9
BITMAP
78
78
F8
F0
F0
E0
E0
ENDCHAR
ENDFONT
